<?xml version="1.0" encoding="UTF-8"?><svg id="a" xmlns="http://www.w3.org/2000/svg" width="633.55" height="440.62" viewBox="0 0 633.55 440.62"><defs><style>.c{stroke:#1d63ed;stroke-miterlimit:6.25;stroke-width:59.38px;}.d{fill:#1d63ed;}</style></defs><g id="b"><path class="c" d="m358.55,173.44h65.62m-143.75,0h65.62m-142.19,0h65.62m-142.19,0h64.06m-142.19,0h65.62m12.5-71.88h64.06m12.5,0h65.62m10.94,0h65.62m-65.62-71.88h65.62"/><path class="d" d="m633.55,176.56s-28.12-26.56-85.94-17.19c-6.25-45.31-54.69-71.88-54.69-71.88,0,0-45.31,54.69-12.5,115.62-9.38,4.69-25,10.94-48.44,10.94H2.3c-7.81,29.69-7.81,226.56,207.81,226.56,154.69,0,270.31-71.88,325-203.12,81.25,6.25,98.44-60.94,98.44-60.94"/></g></svg>