<?xml version="1.0" encoding="UTF-8"?><svg id="Layer_1" xmlns="http://www.w3.org/2000/svg" viewBox="0 0 100 100"><path d="m99.94,22.62c.04.13.06.27.06.41v21.46c0,.56-.31,1.08-.81,1.36l-18.55,10.37v20.56c0,.56-.31,1.08-.81,1.36l-38.71,21.65c-.09.05-.19.08-.28.11-.04.01-.07.03-.11.04-.27.07-.56.07-.83,0-.04-.01-.08-.04-.13-.05-.09-.03-.18-.06-.27-.11L.81,78.14c-.5-.28-.81-.8-.81-1.36V12.39c0-.14.02-.28.06-.41.01-.04.04-.09.06-.13.03-.08.06-.17.1-.24.03-.05.07-.09.11-.14.05-.06.09-.13.14-.18.05-.04.11-.08.16-.12.06-.05.11-.1.18-.13h0L20.16.21c.5-.28,1.11-.28,1.61,0l19.35,10.82h0c.06.04.12.09.18.13.05.04.11.07.16.12.06.06.1.12.15.18.03.05.08.09.11.14.05.08.07.16.1.24.02.04.04.09.06.13.04.13.06.27.06.41v40.22l16.13-9.02v-20.56c0-.14.02-.28.06-.41.01-.05.04-.09.06-.13.03-.08.06-.17.1-.24.03-.05.07-.09.11-.14.05-.06.09-.13.15-.18.05-.04.1-.08.16-.12.06-.05.11-.1.18-.13h0l19.36-10.82c.5-.28,1.11-.28,1.61,0l19.35,10.82c.07.04.12.09.18.13.05.04.11.07.16.12.06.06.1.12.15.18.04.05.08.09.11.14.05.08.07.16.1.24.02.04.04.09.06.13Zm-3.17,20.97v-17.85l-6.77,3.79-9.36,5.23v17.85l16.13-9.02h0Zm-19.35,32.29v-17.86l-9.2,5.11-26.28,14.57v18.03s35.49-19.84,35.49-19.84ZM3.23,15.1v60.78l35.48,19.84v-18.03l-18.54-10.19h0s0,0,0,0c-.06-.04-.11-.09-.17-.13-.05-.04-.11-.07-.15-.11h0c-.05-.05-.09-.12-.13-.17-.04-.05-.09-.1-.12-.15h0c-.04-.06-.06-.13-.08-.2-.03-.06-.06-.11-.08-.18h0c-.02-.08-.02-.15-.03-.23,0-.06-.02-.12-.02-.18h0V24.12l-9.35-5.24-6.77-3.78h0ZM20.97,3.37L4.84,12.39l16.12,9.02,16.12-9.02L20.97,3.37h0Zm8.39,56.27l9.35-5.23V15.1l-6.77,3.79-9.36,5.23v39.31s6.77-3.79,6.77-3.79ZM79.03,14.01l-16.12,9.02,16.12,9.02,16.12-9.02s-16.12-9.01-16.12-9.01Zm-1.61,20.75l-9.36-5.23-6.77-3.79v17.85l9.35,5.23,6.77,3.79s0-17.85,0-17.85Zm-37.1,40.22l23.65-13.12,11.82-6.55-16.11-9.01-18.55,10.37-16.91,9.45s16.1,8.85,16.1,8.85Z" style="fill:#ff2d20; fill-rule:evenodd;"/></svg>