<?xml version="1.0" encoding="UTF-8"?><svg id="Layer_1" xmlns="http://www.w3.org/2000/svg" viewBox="0 0 100 100"><path d="m27.22,96.29c-.61,0-1.15-.06-1.61-.16v3.03c.94.56,1.72.84,2.36.84,2.39,0,4.59-2.19,6.6-6.58,2.57-5.69,4.64-14.82,6.22-27.37h-3.67c-.59,7.31-1.75,14.48-3.48,21.37.12-1.31-.17-3.6-.85-6.89l-3.03-14.48h-3.79l4.23,19.37c.64,2.91.96,4.84.96,5.79,0,1.37-.41,2.61-1.23,3.71-.68.9-1.58,1.36-2.7,1.36h0Z" style="fill:#105e86;"/><path d="m81.18,57.16v33.93h10.96v-4.17h-7.27v-29.75h-3.69Z" style="fill:#de8a03;"/><path d="m4.33,64.03h.04l5.83,27.06h2.94l5.88-27.06h.03c.64,8.99,1.02,18.02,1.13,27.06h3.88c-.24-11.35-.83-22.67-1.78-33.93h-4.56l-5.61,24.94h-.03l-5.56-24.94H1.71c-.94,11.26-1.52,22.58-1.71,33.93h3.52c.11-9.92.38-18.94.81-27.06Z" style="fill:#105e86;"/><path d="m77.83,73.49c0-11.22-2.99-16.85-8.98-16.85-2.93,0-5.23,1.42-6.88,4.27-1.79,3.12-2.69,7.71-2.69,13.77s.79,10.34,2.39,13.13c1.46,2.52,3.65,3.77,6.6,3.77,1.1,0,2.11-.2,3.02-.6l5.52,4.74,1.5-3.81h-.01l-4.23-3.07c.38-.47.74-.97,1.06-1.53,1.8-3.11,2.7-7.72,2.7-13.83h0Zm-9.18,13.9c-1.85,0-3.21-1.02-4.07-3.07v-.03c-.93-2.21-1.4-5.77-1.4-10.65,0-8.55,1.77-12.82,5.29-12.82,1.85,0,3.21,1.02,4.07,3.07.93,2.22,1.4,5.74,1.4,10.57,0,8.61-1.77,12.93-5.29,12.93h0Zm-13.65-12.86s-3.31-2.79-4.95-4.11c-1.8-1.47-2.78-3.21-2.78-5.21,0-1.25.39-2.43,1.03-3.22.63-.85,1.55-1.26,2.73-1.26,1.45,0,2.93.47,4.43,1.41l.89-2.92c-1.74-1.67-3.77-2.55-5.83-2.51-2.08,0-3.77.84-5.08,2.54-1.3,1.69-1.96,3.89-1.96,6.66,0,3.32.88,5.34,2.63,7.22,0,0,3.23,2.72,4.85,4.03,1.74,1.44,2.7,3.16,2.7,5.19.01,1.49-.45,2.89-1.25,3.77-.79.9-1.88,1.35-3.26,1.35-1.49,0-3.13-.66-4.96-2.01l-.99,2.92c2.12,2.11,4.29,3.16,6.55,3.16,2.42,0,4.33-.92,5.77-2.76,1.43-1.84,2.15-4.21,2.15-7.09l.02.02c0-3.31-.9-5.3-2.7-7.17h0Z" style="fill:#de8a03;"/><path d="m68.35,10.13c-.48,0-.8.09-1.14.2v.08h.06c.23.64.61,1.11.89,1.67.23.66.42,1.31.64,1.96l.06-.09c.39-.41.58-1.06.58-2.04-.17-.29-.19-.57-.33-.86-.17-.41-.52-.61-.75-.94h0s0,.01,0,.01Z" style="fill:#105e86;"/><path d="m98.73,56.58c-.82-1.59-1.8-2.99-2.9-4.14-.89-.89-2.84-2.15-3.21-3.65l-.05-.09c.61-.08,1.33-.41,1.92-.65.95-.37,1.81-.29,2.79-.65.44-.16.89-.37,1.33-.57v-.37c-.5-.74-.87-1.74-1.39-2.42-1.44-1.86-2.98-3.55-4.6-5.05-.87-.82-1.98-1.35-2.9-2.05-.33-.24-.89-.37-1.08-.78-.5-.89-.79-2.09-1.15-3.16-.8-2.26-1.58-4.76-2.28-7.14-.5-1.61-.8-3.21-1.42-4.68-2.88-6.97-5.99-11.21-10.78-15.34-1.03-.86-2.26-1.22-3.57-1.68-.7-.05-1.39-.12-2.08-.17-.46-.29-.9-1.07-1.29-1.44-1.58-1.47-5.68-4.66-6.85-.44-.75,2.66,1.11,5.29,1.76,6.64.48.94,1.08,2.01,1.42,3.07.2.71.25,1.44.45,2.19.44,1.81.86,3.81,1.45,5.51.3.86.64,1.76,1.03,2.53.22.45.61.66.7,1.39-.39.84-.42,2.05-.64,3.07-1,4.64-.61,10.39.81,13.8.45,1.02,1.51,3.27,2.93,2.41,1.25-.74.97-3.07,1.33-5.12.08-.49.03-.82.2-1.15v.09c.39,1.16.78,2.25,1.14,3.41.86,2.01,2.36,4.1,3.61,5.49.67.74,1.2,2.01,2.03,2.47v-.12h-.06c-.18-.36-.42-.52-.64-.82-.53-.76-1.02-1.58-1.46-2.46-1.17-2.36-2.21-4.86-3.11-7.47-.46-1.29-.84-2.67-1.21-3.94-.17-.49-.17-1.22-.45-1.47-.42.89-1.03,1.67-1.33,2.78-.53,1.77-.58,3.94-.78,6.2-.11.04-.06,0-.11.09-.89-.32-1.2-1.68-1.53-2.82-.83-2.91-.97-7.59-.25-10.96.2-.86,1.03-3.57.7-4.39-.17-.78-.72-1.22-1.03-1.86-.39-.82-.73-1.7-1-2.62-.67-2.29-1-4.84-1.72-7.13-.33-1.06-.92-2.17-1.39-3.15-.53-1.11-1.11-1.88-1.53-3.19-.14-.45-.33-1.19-.11-1.68.06-.33.17-.46.39-.55.37-.44,1.4.14,1.76.38,1.03.61,1.9,1.19,2.76,2.05.39.41.81,1.18,1.31,1.39h.58c.89.29,1.9.09,2.73.45,1.48.7,2.81,1.72,4.01,2.82,3.67,3.44,6.67,8.28,8.69,14.02.33.94.48,1.81.78,2.79.58,2.02,1.3,4.07,1.9,6.02.58,1.93,1.15,3.91,1.98,5.51.42.86,2.09,1.31,2.84,1.76.55.37,1.42.71,1.92,1.16.96.86,1.89,1.84,2.79,2.79.46.47,1.85,1.49,1.93,2.32-2.23-.09-3.96.24-5.4,1.16-.42.24-1.08.24-1.14,1.02.23.32.26.86.46,1.31.33.82.91,1.92,1.44,2.5.58.67,1.17,1.32,1.78,1.9,1.08.98,2.31,1.56,3.37,2.55.6.57,1.22,1.31,1.83,1.92.3.31.5.86.89,1.06v-.12c-.19-.37-.25-.9-.44-1.31-.28-.41-.56-.78-.83-1.19h0Z" style="fill:#105e86;"/></svg>