<?xml version="1.0" encoding="UTF-8"?><svg id="Layer_1" xmlns="http://www.w3.org/2000/svg" viewBox="0 0 100 100"><path d="m74.71,72.8c.66-5.3.46-6.08,4.53-5.22l1.03.09c3.13.14,7.22-.49,9.63-1.57,5.18-2.33,8.25-6.22,3.14-5.2-11.64,2.33-12.44-1.49-12.44-1.49,12.3-17.69,17.44-40.16,13-45.65-12.1-15-33.05-7.91-33.4-7.72l-.11.02c-2.3-.46-4.88-.74-7.77-.78-5.27-.08-9.27,1.34-12.3,3.57,0,0-37.37-14.93-35.63,18.78.37,7.17,10.6,54.26,22.8,40.04,4.46-5.2,8.77-9.6,8.77-9.6,2.14,1.38,4.7,2.08,7.39,1.83l.21-.17c-.07.65-.04,1.28.08,2.03-3.14,3.41-2.22,4-8.5,5.26-6.36,1.27-2.62,3.53-.18,4.12,2.96.72,9.79,1.73,14.42-4.54l-.18.72c1.23.96,1.15,6.88,1.32,11.1.17,4.23.47,8.18,1.36,10.5.89,2.33,1.94,8.32,10.19,6.6,6.9-1.43,12.18-3.5,12.66-22.7"/><path d="m59.36,100c-3.75,0-6.2-1.41-7.69-2.78-2.24-2.05-3.12-4.67-3.65-6.23-.08-.25-.16-.48-.22-.63-1.06-2.76-1.41-6.71-1.62-11.79-.03-.75-.05-1.55-.08-2.37-.01-.51-.03-1.09-.05-1.7-3.55,1.51-7.71,1.78-12.15.7-1.99-.48-4.05-1.46-5.33-2.95-3.54,2.85-6.9,2.43-8.75,1.83-3.31-1.07-6.25-4.05-9-9.1-1.94-3.57-3.82-8.21-5.57-13.8C2.18,41.45.24,31.2.06,27.83-.48,17.21,2.48,9.61,8.86,5.24,14.13,1.62,21.34.51,30.29,1.94c3.8.61,7.1,1.55,9.15,2.23,3.71-2.13,8.05-3.17,12.95-3.1,2.62.04,5.11.26,7.44.66C62.32.98,67.1-.06,72.54,0c10.21.12,18.66,3.98,24.46,11.16,3.97,4.92,2.49,14.62.56,21.89-2.17,8.15-5.94,16.8-10.57,24.39,1.23-.03,2.91-.21,5.18-.66,5.66-1.13,7.23,2.09,7.57,3.11,1.75,5.15-5.69,8.96-8.02,10.01-2.94,1.33-7.73,2.13-11.65,1.96h-.18s-.7-.07-.7-.07l-.06.52c-.03.25-.06.52-.1.79-.26,9.79-1.71,16-4.7,20.13-3.16,4.36-7.53,5.58-11.37,6.38-1.31.27-2.51.39-3.6.39h0Zm-7.48-35.98c2.47,1.92,2.68,5.41,2.87,11.94.02.78.04,1.55.07,2.27.09,2.13.3,7.13,1.09,9.21.12.31.22.62.33.94.9,2.67,1.27,3.77,4.9,3.02,3.2-.67,4.84-1.26,6.1-3,1.89-2.6,2.94-7.89,3.14-15.7l4.33.1-4.3-.5c.04-.34.08-.66.12-.96.38-3.13.67-5.6,2.97-7.2,1.45-1.01,3.09-1.14,4.51-1.02-1.17-1.16-1.54-2.34-1.65-2.88l-.36-1.72,1.01-1.46c5.36-7.72,9.79-17.21,12.15-26.04,2.41-9.01,1.73-13.78,1.02-14.68-9.62-11.92-26.36-7.06-28.21-6.47l-.32.17-1.62.29-.83-.17c-2.11-.42-4.45-.66-6.96-.7-3.9-.06-7.04.83-9.61,2.72l-1.97,1.45-2.29-.92c-4.48-1.78-17.63-5.35-24.52-.62-3.8,2.61-5.52,7.76-5.13,15.3.13,2.61,1.96,12.42,4.98,21.85,4.15,12.96,7.8,16.56,8.84,16.85.13-.05.59-.29,1.32-1.14,4.5-5.25,8.78-9.62,8.96-9.81l2.5-2.56,3.03,1.95c1.04.67,2.19,1.06,3.36,1.16l7.19-5.94-1.04,10.35c-.02.2-.03.46.05.97l.31,1.96-1.37,1.48s-.02.03-.04.04l3.36,1.5,1.7-2.06Z"/><path d="m93.04,60.9c-11.64,2.33-12.45-1.49-12.45-1.49,12.3-17.7,17.44-40.16,13-45.65-12.1-15-33.05-7.9-33.4-7.72l-.11.02c-2.3-.46-4.88-.74-7.77-.78-5.27-.08-9.27,1.34-12.3,3.57,0,0-37.37-14.93-35.63,18.78.37,7.17,10.6,54.26,22.8,40.04,4.46-5.2,8.77-9.6,8.77-9.6,2.14,1.38,4.7,2.08,7.39,1.83l.21-.17c-.06.65-.04,1.28.08,2.03-3.14,3.41-2.22,4-8.5,5.26-6.36,1.27-2.62,3.53-.18,4.12,2.96.72,9.79,1.73,14.41-4.54l-.18.72c1.23.96,2.1,6.22,1.95,11-.14,4.77-.24,8.05.73,10.61s1.94,8.32,10.2,6.6c6.9-1.43,10.48-5.15,10.97-11.35.35-4.41,1.15-3.76,1.2-7.7l.64-1.87c.74-5.98.12-7.9,4.37-7.01l1.03.09c3.13.14,7.22-.49,9.63-1.57,5.18-2.33,8.25-6.22,3.14-5.2h0,0Z" style="fill:#336791;"/><path d="m59.77,97.4c-6.95,0-9.15-5.33-10.05-7.52-1.32-3.2-1.61-15.16-1.3-25.59.02-.77.69-1.38,1.48-1.36.8.02,1.42.67,1.4,1.44-.34,11.62.14,22.14,1.1,24.48,1.49,3.61,3.75,6.78,10.14,5.45,6.16-1.28,8.35-3.43,9.38-9.21.79-4.41,2.34-16.98,2.53-19.46.06-.77.75-1.35,1.55-1.29.79.06,1.39.73,1.33,1.5,0,0,0,0,0,0-.2,2.59-1.75,15.14-2.56,19.73-1.22,6.85-4.37,9.96-11.62,11.47-1.23.26-2.36.37-3.38.37h0Zm-37.32-25.83c-.67,0-1.28-.12-1.81-.29-4.51-1.46-8.79-8.54-12.73-21.06-2.99-9.51-4.89-19.44-5.06-22.67-.49-9.6,2.06-16.39,7.59-20.19,10.93-7.51,29.28-.37,30.05-.06.74.29,1.09,1.11.79,1.82-.3.72-1.14,1.06-1.88.77h0c-.21-.08-17.68-6.86-27.3-.24-4.67,3.21-6.81,9.19-6.37,17.76.14,2.71,1.91,12.38,4.93,22,3.5,11.11,7.46,18.12,10.88,19.23.52.17,2.12.69,4.43-2.01,4.44-5.18,8.52-9.31,8.56-9.35.55-.56,1.46-.58,2.04-.04,0,0,0,0,0,0,.58.53.59,1.42.04,1.98,0,0,0,0,0,0-.04.04-4.05,4.11-8.42,9.21-2.1,2.44-4.11,3.16-5.76,3.16Zm58.06-10.91c-.8,0-1.44-.63-1.44-1.4,0-.28.09-.55.25-.78,12.4-17.85,16.78-39.4,13.06-44.01-4.68-5.8-11.29-8.83-19.64-9.01-6.18-.13-11.12,1.4-11.94,1.67-.07.03-.14.06-.21.08-.87.27-1.55-.2-1.8-.75-.3-.65-.05-1.41.57-1.78.54-.32,6.22-2.11,13.02-2.04,9.32.1,17.03,3.58,22.27,10.09,3.54,4.39,1.2,15.07.03,19.47-2.51,9.44-7.24,19.58-12.97,27.83-.27.39-.72.62-1.2.62h0Z" style="fill:#fff;"/><path d="m81.15,68.94c-2.14,0-4.07-.29-5.22-.96-1.21-.71-1.45-1.67-1.48-2.18-.32-5.37,2.65-6.43,4.29-6.89-.21-.29-.48-.62-.77-.97-.92-1.12-2.19-2.66-3.17-4.95-.15-.35-.63-1.18-1.18-2.14-3-5.22-9.25-16.1-5.21-21.7,1.86-2.57,5.52-3.61,10.91-3.08-.72-2.06-2.51-5.89-5.82-9.69-3.85-4.41-10.66-9.7-21.29-9.87-5.39-.09-9.82,1.52-13.14,4.77-7.45,7.29-7.2,20.55-7.19,20.69.02.77-.61,1.41-1.41,1.43-.79.02-1.46-.59-1.48-1.36-.02-.59-.3-14.57,8.02-22.72,3.9-3.82,9.03-5.7,15.25-5.61,11.59.18,19.05,5.9,23.27,10.66,4.6,5.19,6.85,10.92,7.04,12.84.15,1.54-1.07,1.83-1.21,1.85h-.52c-3.63-.55-8.33-.72-10.06,1.67-3,4.16,2.86,14.37,5.37,18.73.64,1.12,1.11,1.93,1.32,2.43.82,1.93,1.89,3.23,2.75,4.27.77.93,1.43,1.73,1.68,2.69.13.2,1.73,2.31,10.77.51,2.37-.48,3.8-.06,4.25,1.25.86,2.52-3.87,5.41-6.49,6.59-2.33,1.05-6.05,1.71-9.27,1.71h0Zm-3.82-3.41c.35.28,1.84.73,4.77.6,2.65-.12,5.44-.68,7.11-1.44,1.94-.87,3.31-1.85,4.11-2.57h-.07c-5.93,1.2-10.13,1.04-12.48-.47-.14-.09-.27-.18-.4-.29-.2.07-.4.12-.61.18-1.33.36-2.59.71-2.43,3.99h0Zm-38.22,7.39c-1.47,0-3-.19-4.6-.58-.46-.11-4.48-1.16-4.42-3.65.05-2.28,3.4-2.95,4.67-3.2,4.44-.89,4.73-1.24,6.11-2.94.41-.5.92-1.13,1.61-1.88,2.31-2.51,4.49-1.63,5.42-1.26,1.46.59,2.67,2,3.17,3.69.45,1.53.23,3-.61,4.15-2.74,3.73-6.68,5.66-11.34,5.66h0Zm-5.82-4.1c.42.28,1.13.61,1.93.8,3.85.93,9.21,1,12.89-4,.44-.59.3-1.35.18-1.75-.25-.85-.87-1.62-1.5-1.88-.78-.31-1.22-.49-2.16.54h0c-.63.69-1.09,1.25-1.5,1.75-1.76,2.17-2.57,2.9-7.79,3.95-1.08.22-1.7.43-2.05.59h0Zm10.26-7.22h0,0Z" style="fill:#fff;"/><path d="m43.34,62.94c-.71,0-1.32-.51-1.42-1.19-.03-.19-.05-.37-.06-.56-3.39-.09-6.66-1.51-9.14-4.03-3.17-3.21-4.61-7.65-3.96-12.19.7-4.89.44-9.2.3-11.52-.04-.65-.07-1.12-.07-1.44,0-.43.01-1.56,3.81-3.43,1.34-.66,4.02-1.81,6.95-2.1,4.89-.49,8.12,1.63,9.09,5.96,2.58,11.57.2,16.7-1.53,20.44-.32.69-.62,1.35-.87,1.98l-.21.56c-.91,2.36-1.69,4.41-1.46,5.91.12.76-.42,1.48-1.21,1.6-.07.01-.15.02-.22.02h0Zm-11.46-30.52c.01.23.03.53.05.87.15,2.42.42,6.91-.32,12.07-.53,3.69.63,7.28,3.18,9.87,2.01,2.03,4.65,3.16,7.37,3.17.31-1.24.82-2.55,1.36-3.96l.21-.56c.28-.72.6-1.42.94-2.15,1.66-3.57,3.72-8.02,1.34-18.7-.46-2.06-1.57-3.26-3.38-3.66-3.98-.88-9.55,2.01-10.76,3.05h0Z" style="fill:#fff;"/><path d="m39.82,31.82c-.07.46.86,1.68,2.08,1.84,1.21.16,2.25-.79,2.31-1.25.07-.46-.86-.96-2.08-1.13-1.21-.16-2.25.07-2.31.53Z" style="fill:#fff;"/><path d="m42.16,34.14c-.11,0-.22,0-.33-.02-.76-.1-1.53-.57-2.06-1.25-.19-.24-.49-.7-.43-1.12.02-.16.11-.39.38-.59.48-.35,1.43-.48,2.48-.34.64.09,1.24.27,1.69.51.78.42.84.9.8,1.14-.1.71-1.26,1.67-2.53,1.67h0Zm-1.86-2.24c.07.31.76,1.17,1.66,1.29.9.12,1.65-.57,1.76-.82-.1-.15-.66-.49-1.66-.63-.98-.13-1.61.04-1.76.16h0Zm36.42-1.02c.07.46-.86,1.68-2.08,1.84-1.21.16-2.25-.79-2.32-1.25-.06-.46.87-.96,2.08-1.13s2.25.07,2.32.53h0s0,0,0,0Z" style="fill:#fff;"/><path d="m74.38,32.98c-1.19,0-2.2-.93-2.28-1.47-.1-.7,1.07-1.23,2.28-1.39,1.21-.16,2.49.04,2.59.73h0c.04.31-.2.79-.62,1.22-.28.28-.86.77-1.66.88-.1.01-.2.02-.3.02Zm.79-2.45c-.22,0-.46.02-.72.05-1.27.17-1.9.66-1.87.86.05.31.96,1.19,2.04,1.05.65-.09,1.14-.5,1.38-.74.37-.37.51-.72.5-.84-.02-.16-.5-.38-1.33-.38h0Zm3.31,26.73c-.8,0-1.44-.63-1.44-1.4,0-.28.09-.55.24-.78,2.82-4.08,2.3-8.26,1.8-12.3-.21-1.73-.44-3.53-.38-5.25.06-1.77.29-3.23.51-4.64.26-1.66.51-3.24.41-5.1-.04-.77.57-1.43,1.36-1.47,0,0,0,0,0,0,.8-.04,1.48.55,1.52,1.32.12,2.15-.16,3.94-.44,5.67-.21,1.33-.43,2.7-.48,4.31-.05,1.51.15,3.12.36,4.83.54,4.33,1.15,9.25-2.27,14.19-.27.39-.72.62-1.2.62h0Z" style="fill:#fff;"/></svg>