<?xml version="1.0" encoding="UTF-8"?><svg id="Layer_1" xmlns="http://www.w3.org/2000/svg" viewBox="0 0 103 103"><defs><style>.rsl-1{stroke-width:6px;}.rsl-1,.rsl-2,.rsl-3,.rsl-4{stroke:#000;}.rsl-1,.rsl-2,.rsl-4{stroke-linejoin:round;}.rsl-2{stroke-width:3px;}.rsl-3{fill:none;stroke-width:9px;}</style></defs><path class="rsl-4" d="m43.17,37.28h12.75c7.84,0,7.84,7.84,0,7.84h-12.75v-7.84Zm-30.39,36.27h39.22v-10.78h-8.82v-7.84h9.8c10.78,0,4.9,18.63,13.73,18.63h24.51v-18.63h-5.88v1.96c0,7.84-8.82,6.86-9.8,1.96s-4.9-8.82-5.88-8.82c14.71-7.84,5.88-23.53-5.88-23.53H17.68v10.78h9.8v25.49h-14.71v10.78h0Z"/><circle class="rsl-3" cx="51.5" cy="51.5" r="42.16"/><path id="b" class="rsl-2" d="m96.6,54.44l4.9-2.94-4.9-2.94s0,5.88,0,5.88Z"/><path id="b-2" class="rsl-2" d="m95.16,63.18l5.38-1.93-4.23-3.84s-1.15,5.77-1.15,5.77Z"/><path id="b-3" class="rsl-2" d="m92.04,71.48l5.65-.84-3.4-4.59-2.25,5.43Z"/><path id="b-4" class="rsl-2" d="m87.36,79l5.71.28-2.44-5.17-3.27,4.89Z"/><path id="b-5" class="rsl-2" d="m81.31,85.47l5.55,1.39-1.39-5.55-4.16,4.16Z"/><path id="b-6" class="rsl-2" d="m74.11,90.63l5.17,2.44-.28-5.71-4.89,3.27Z"/><path id="b-7" class="rsl-2" d="m66.04,94.29l4.59,3.4.84-5.65-5.43,2.25Z"/><path id="b-8" class="rsl-2" d="m57.41,96.31l3.84,4.23,1.93-5.38s-5.77,1.15-5.77,1.15Z"/><path id="b-9" class="rsl-2" d="m48.56,96.6l2.94,4.9,2.94-4.9s-5.88,0-5.88,0Z"/><path id="b-10" class="rsl-2" d="m39.82,95.16l1.93,5.38,3.84-4.23s-5.77-1.15-5.77-1.15Z"/><path id="b-11" class="rsl-2" d="m31.52,92.04l.84,5.65,4.59-3.4-5.43-2.25Z"/><path id="b-12" class="rsl-2" d="m24,87.36l-.28,5.71,5.17-2.44-4.89-3.27Z"/><path id="b-13" class="rsl-2" d="m17.53,81.31l-1.39,5.55,5.55-1.39s-4.16-4.16-4.16-4.16Z"/><path id="b-14" class="rsl-2" d="m12.37,74.11l-2.44,5.17,5.71-.28s-3.27-4.89-3.27-4.89Z"/><path id="b-15" class="rsl-2" d="m8.71,66.04l-3.4,4.59,5.65.84-2.25-5.43Z"/><path id="b-16" class="rsl-2" d="m6.69,57.41l-4.23,3.84,5.38,1.93-1.15-5.77Z"/><path id="b-17" class="rsl-2" d="m6.4,48.56l-4.9,2.94,4.9,2.94s0-5.88,0-5.88Z"/><path id="b-18" class="rsl-2" d="m7.84,39.82l-5.38,1.93,4.23,3.84,1.15-5.77Z"/><path id="b-19" class="rsl-2" d="m10.96,31.52l-5.65.84,3.4,4.59,2.25-5.43Z"/><path id="b-20" class="rsl-2" d="m15.64,24l-5.71-.28,2.44,5.17s3.27-4.89,3.27-4.89Z"/><path id="b-21" class="rsl-2" d="m21.69,17.53l-5.55-1.39,1.39,5.55,4.16-4.16Z"/><path id="b-22" class="rsl-2" d="m28.89,12.37l-5.17-2.44.28,5.71s4.89-3.27,4.89-3.27Z"/><path id="b-23" class="rsl-2" d="m36.96,8.71l-4.59-3.4-.84,5.65,5.43-2.25Z"/><path id="b-24" class="rsl-2" d="m45.59,6.69l-3.84-4.23-1.93,5.38,5.77-1.15Z"/><path id="b-25" class="rsl-2" d="m54.44,6.4l-2.94-4.9-2.94,4.9s5.88,0,5.88,0Z"/><path id="b-26" class="rsl-2" d="m63.18,7.84l-1.93-5.38-3.84,4.23,5.77,1.15Z"/><path id="b-27" class="rsl-2" d="m71.48,10.96l-.84-5.65-4.59,3.4,5.43,2.25Z"/><path id="b-28" class="rsl-2" d="m79,15.64l.28-5.71-5.17,2.44s4.89,3.27,4.89,3.27Z"/><path id="b-29" class="rsl-2" d="m85.47,21.69l1.39-5.55-5.55,1.39s4.16,4.16,4.16,4.16Z"/><path id="b-30" class="rsl-2" d="m90.63,28.89l2.44-5.17-5.71.28,3.27,4.89Z"/><path id="b-31" class="rsl-2" d="m94.29,36.96l3.4-4.59-5.65-.84,2.25,5.43Z"/><path id="b-32" class="rsl-2" d="m96.31,45.59l4.23-3.84-5.38-1.93s1.15,5.77,1.15,5.77Z"/><path id="c" class="rsl-1" d="m44.64,10.32l6.86,6.86,6.86-6.86h-13.73,0Z"/><path id="c-2" class="rsl-1" d="m88.54,32.25l-4.41,8.65,8.65,4.41-4.24-13.05h0Z"/><path id="c-3" class="rsl-1" d="m81.25,80.78l-9.59-1.52-1.52,9.59,11.1-8.07h0Z"/><path id="c-4" class="rsl-1" d="m32.85,88.85l-1.52-9.59-9.59,1.52,11.1,8.07h.01Z"/><path id="c-5" class="rsl-1" d="m10.22,45.3l8.65-4.41-4.41-8.65-4.24,13.05h0Z"/></svg>