<?xml version="1.0" encoding="UTF-8"?><svg id="Layer_1" xmlns="http://www.w3.org/2000/svg" viewBox="0 0 100 100"><path d="m86.08,57.42c-3.5.03-6.52,1.15-9.06,2.81-.94-2.48-1.88-4.64-2.03-6.25-.18-1.88-.39-3.02-.18-5.26s1.19-5.42,1.19-5.68c-.02-.23-.21-1.38-2.23-1.41-2.01-.03-3.75.52-3.95,1.22s-.59,2.32-.84,3.99c-.35,2.45-4.02,11.13-6.11,15.69-.68-1.77-1.27-3.34-1.39-4.59-.18-1.88-.39-3.02-.18-5.26s1.19-5.42,1.19-5.68c-.02-.23-.21-1.38-2.23-1.41-2.01-.03-3.75.52-3.95,1.22s-.41,2.37-.84,3.99c-.41,1.62-5.29,16.1-6.56,19.88-.64,1.93-1.21,3.47-1.62,4.51s-.02.08-.06.18c-.35.89-.55,1.38-.55,1.38v.03c-.27.65-.57,1.28-.7,1.28-.1,0-.29-1.75.04-4.14.72-5.03,2.48-12.87,2.46-13.16,0-.13.33-1.51-1.13-2.21-1.43-.7-1.93.47-2.05.47s-.21.42-.21.42c0,0,1.58-8.83-3.03-8.83-2.89,0-6.88,4.2-8.85,8.03-1.25.91-3.91,2.84-6.72,4.9-1.07.78-2.19,1.62-3.24,2.37l-.21-.31c-5.59-7.95-15.92-13.58-15.49-24.26.16-3.88,1.17-14.12,19.85-26.53,15.29-10.16,27.54-7.37,29.67-1.17,3.03,8.86-6.54,25.33-22.44,27.7-6.06.91-9.24-2.21-10.04-3.39-.84-1.22-.96-1.28-1.27-1.04-.51.36-.2,1.46,0,2.11.47,1.64,2.42,4.56,5.74,6.02,2.91,1.28,10.02,1.98,18.61-2.45,9.63-4.98,17.15-18.79,14.94-30.33C60.38.48,45.77-3.37,31.96,3.17c-8.22,3.91-17.13,10.01-23.54,18.01C.8,30.66-.41,38.95.1,42.39c1.78,12.27,14.45,20.27,19.53,26.19-.25.18-.49.36-.7.52-2.54,1.67-12.21,8.42-14.63,15.56-2.73,8.08.43,13.89,2.54,14.67,6.52,2.42,13.2-1.93,16.82-9.09,3.59-7.17,3.16-16.47,1.5-20.72l-.06-.16,1.99-1.56c1.29-1.02,2.56-1.95,3.67-2.76-.63,2.27-1.07,4.95-1.31,8.86-.27,4.59,1.13,10.53,2.99,12.87.82,1.02,1.8,1.04,2.4,1.04,2.15,0,3.13-2.37,4.2-5.21,1.33-3.47,2.5-7.48,2.5-7.48,0,0-1.46,10.87,2.54,10.87,1.46,0,2.93-2.53,3.59-3.83v.03s.04-.08.12-.26c.16-.31.23-.5.23-.5v-.05c.59-1.36,1.89-4.46,3.85-9.59,2.52-6.62,4.94-14.91,4.94-14.91,0,0,.23,2.03.96,5.37.43,1.98,1.37,4.14,2.09,6.25-.59,1.09-.94,1.72-.94,1.72l.02.03c-.47.83-1,1.72-1.54,2.61-1.99,3.18-4.38,6.8-4.69,7.84-.37,1.22-.29,2.14.43,2.87.53.52,1.46.63,2.46.52,1.8-.16,3.05-.76,3.67-1.12.98-.47,2.09-1.17,3.16-2.21,1.95-1.93,3.14-4.66,3.03-8.31-.06-2.01-.55-3.99-1.15-5.86.18-.34.35-.68.53-1.04,3.09-6.02,5.47-12.64,5.47-12.64,0,0,.23,2.03.96,5.37.37,1.69,1.11,3.54,1.78,5.37-2.89,3.15-4.71,6.8-5.33,9.2-1.15,4.43-.25,6.44,1.45,6.91.76.21,1.86-.26,2.68-.73,1.02-.44,2.25-1.2,3.38-2.32,1.95-1.93,3.83-4.61,3.73-8.23-.06-1.67-.39-3.31-.84-4.87,2.46-1.36,5.65-2.14,9.69-1.49,8.69,1.36,10.41,8.6,10.08,11.62-.33,3.02-2.15,4.69-2.75,5.21-.61.5-.8.68-.74,1.04.08.55.35.52.88.42.72-.16,4.57-2.48,4.73-8.05.23-7.17-4.86-14.98-13.91-14.91h0Zm-67.04,30.15c-2.87,4.2-6.91,5.79-8.63,4.43-1.86-1.43-1.13-7.61,2.4-12.07,2.15-2.71,4.94-5.21,6.78-6.75.41-.34,1.04-.83,1.78-1.43.12-.1.2-.16.2-.16.14-.1.29-.23.45-.36,1.31,6.36.06,11.93-2.97,16.34h0Zm21-19.05c-1,3.26-3.11,11.62-4.38,11.15-1.09-.39-1.76-6.72-.21-12.98.78-3.15,2.44-6.91,3.42-8.36,1.58-2.35,3.3-3.13,3.73-2.16.51,1.25-1.93,10.32-2.56,12.35Zm17.33,11.05c-.43.29-.82.5-1,.34-.14-.1.18-.5.18-.5,0,0,2.17-3.1,3.03-4.53.49-.83,1.07-1.8,1.7-2.89v.31c0,3.75-2.7,6.25-3.91,7.27Zm13.36-4.07c-.31-.31-.27-1.28.78-4.3.41-1.2,1.35-3.21,2.97-5.11.2.78.31,1.54.29,2.24-.02,4.69-2.52,6.44-4.04,7.17Z" style="fill:#cf649a;"/></svg>