<?xml version="1.0" encoding="UTF-8"?><svg id="Layer_1" xmlns="http://www.w3.org/2000/svg" viewBox="0 0 100 100"><path d="m48.91.03c-17.59.93-22.82,21.86-24.02,33.2,1.56-4.2,6.48-13.42,13.73-13.42,8.44,0,14.87,15.69,18.79,20.59,4.76,5.95,14.34,13.81,26.91,7.44,10.02-5.08,14.67-22.8,15.69-31.2-4.85,10.98-12.2,17.57-21.3,9.8C72.44,21.08,67.76-.96,48.91.03Zm-24.89,49.8C6.43,50.76,1.2,71.69,0,83.03c1.56-4.2,6.48-13.42,13.73-13.42,8.44,0,14.87,15.69,18.79,20.59,4.76,5.95,14.34,13.81,26.91,7.44,10.02-5.08,14.67-22.8,15.69-31.2-4.85,10.98-12.2,17.57-21.3,9.8-6.26-5.35-10.95-27.39-29.79-26.4Z" style="fill:#07b6d5;"/></svg>