<?xml version="1.0" encoding="UTF-8"?><svg id="Layer_1" xmlns="http://www.w3.org/2000/svg" viewBox="0 0 100 100"><path d="m9.77,0h80.47c5.39,0,9.77,4.37,9.77,9.77v80.47c0,5.39-4.37,9.77-9.77,9.77H9.77c-5.39,0-9.77-4.37-9.77-9.77V9.77C0,4.37,4.37,0,9.77,0Z" style="fill:#3178c6;"/><path d="m9.77,0h80.47c5.39,0,9.77,4.37,9.77,9.77v80.47c0,5.39-4.37,9.77-9.77,9.77H9.77c-5.39,0-9.77-4.37-9.77-9.77V9.77C0,4.37,4.37,0,9.77,0Z" style="fill:#3178c6;"/><path d="m61.9,79.58v9.78c1.59.81,3.47,1.43,5.64,1.83s4.46.61,6.86.61c4.14,0,8.68-.59,12.23-2.89,3.53-2.28,5.17-6.08,5.17-10.19,0-3.05-.95-5.99-3.09-8.22-3.21-3.34-7.72-4.69-11.77-6.68-2.03-.99-4.83-2.54-4.83-5.15,0-.67.17-1.28.52-1.82,1.39-2.17,4.49-2.61,6.85-2.61,2.68,0,5.51.6,7.99,1.71.87.39,1.67.84,2.4,1.34v-9.14c-1.49-.57-3.11-.99-4.88-1.27s-3.79-.41-6.07-.41-4.52.25-6.6.75-3.91,1.28-5.49,2.34c-1.58,1.06-2.83,2.41-3.74,4.05-.92,1.64-1.38,3.6-1.38,5.88,0,2.91.84,5.4,2.52,7.46,1.68,2.06,4.23,3.8,7.66,5.22,2.3.94,4.7,1.87,6.77,3.27,1.44.97,2.74,2.32,2.74,4.16,0,1.33-.75,2.46-1.85,3.16-1.62,1.04-3.7,1.27-5.58,1.27-2.12,0-4.22-.37-6.3-1.12-2.08-.74-4-1.86-5.78-3.35h0Zm-16.44-24.09h12.54v-8.02H23.05v8.02h12.48v35.73h9.94v-35.73Z" style="fill:#fff; fill-rule:evenodd;"/></svg>