<?xml version="1.0" encoding="UTF-8"?><svg id="Layer_1" xmlns="http://www.w3.org/2000/svg" viewBox="0 0 100 100"><path d="m61.44,0v.54c0,6.33-5.13,11.47-11.47,11.47s-11.47-5.13-11.47-11.47v-.54H0v100h100V0h-38.56Z" style="fill:#654ff0;"/><path d="m23.23,53.89h6.63l4.52,24.1h.08l5.44-24.1h6.2l4.91,24.39h.1l5.16-24.39h6.5l-8.45,35.41h-6.58l-4.87-24.1h-.13l-5.21,24.1h-6.7l-7.6-35.41Zm47.01,0h10.45l10.38,35.41h-6.84l-2.26-7.88h-11.9l-1.74,7.88h-6.66l8.57-35.41Zm3.98,8.73l-2.89,12.99h9l-3.32-12.99h-2.79Z" style="fill:#fff;"/></svg>