<?xml version="1.0" encoding="UTF-8"?><svg id="Layer_1" xmlns="http://www.w3.org/2000/svg" xmlns:xlink="http://www.w3.org/1999/xlink" viewBox="0 0 100 100"><defs><linearGradient id="linear-gradient" x1="5.55" y1="87.29" x2="102.82" y2="10.07" gradientTransform="translate(0 102) scale(1 -1)" gradientUnits="userSpaceOnUse"><stop offset="0" stop-color="#9013fe"/><stop offset="1" stop-color="#6610f2"/></linearGradient><linearGradient id="linear-gradient-2" x1="34.67" y1="73.12" x2="57.8" y2="34.01" gradientTransform="translate(0 102) scale(1 -1)" gradientUnits="userSpaceOnUse"><stop offset="0" stop-color="#fff"/><stop offset="1" stop-color="#f1e5fc"/></linearGradient></defs><path d="m11.03,13.07c-.19-6.8,4.03-13.07,9.74-13.07h58.47c5.71,0,9.93,6.27,9.74,13.07-.18,6.53.05,14.99,1.75,21.89,1.7,6.92,4.57,11.29,9.27,11.86v6.37c-4.7.56-7.57,4.94-9.27,11.86-1.7,6.9-1.93,15.36-1.75,21.89.19,6.8-4.03,13.07-9.74,13.07H20.77c-5.71,0-9.93-6.27-9.74-13.07.18-6.53-.05-14.99-1.75-21.89-1.7-6.92-4.58-11.29-9.28-11.86v-6.37c4.7-.56,7.58-4.94,9.28-11.86,1.7-6.9,1.93-15.36,1.75-21.89Z" style="fill:url(#linear-gradient);"/><path d="m52.17,76.58c9.24,0,14.8-5.68,14.8-15.04,0-7.08-3.97-12.2-9.87-13.01v-.29c4.33-.88,7.73-5.93,7.73-11.57,0-8.04-5.06-13.27-12.76-13.27h-17.33v53.19h17.42Zm-10.68-46.44h8.97c4.87,0,7.64,2.73,7.64,7.67,0,5.27-3.22,8.22-9.06,8.22h-7.55v-15.89Zm0,39.7v-17.51h8.91c6.38,0,9.69,2.95,9.69,8.7s-3.22,8.81-9.3,8.81h-9.3Z" style="fill:url(#linear-gradient-2); stroke:#fff;"/></svg>