<?xml version="1.0" encoding="UTF-8"?><svg id="Layer_1" xmlns="http://www.w3.org/2000/svg" viewBox="0 0 100 100"><path d="m18.61,15.4c-6.37,8.66-5.58,19.93-.71,29.14l.36.65.23.41.14.24.25.43c.15.25.31.5.46.75l.27.41c.18.27.36.53.54.8l.23.34c.25.36.51.71.78,1.07l.02.03.13.17c.23.3.47.6.71.9l.27.32c.22.26.43.51.66.77l.25.28c.3.33.6.67.92.99l.02.02.04.04c.3.31.61.62.93.93l.3.28c.24.23.49.46.74.69l.3.27c.34.3.67.59,1.02.88h.02s.18.16.18.16c.3.25.61.5.93.74l.38.29c.25.19.51.38.77.57l.41.3c.29.2.57.4.87.59l.31.21.09.06c.28.18.56.35.84.53l.36.23c.43.26.87.51,1.32.76l.36.19c.33.18.65.35.99.52l.55.27.71.35.16.07.29.13c.37.17.74.33,1.12.49l.24.1c.43.18.87.35,1.31.51l.32.12c.41.15.82.29,1.23.43l.16.05c.45.15.91.29,1.37.43l.33.09c.47.13.93.29,1.42.38,30.79,5.32,39.74-17.52,39.74-17.52-7.51,9.26-20.85,11.71-33.48,8.99-.48-.1-.94-.24-1.41-.37l-.35-.1c-.46-.13-.91-.27-1.36-.42l-.19-.06c-.4-.13-.8-.27-1.2-.42l-.34-.12c-.43-.16-.87-.33-1.29-.51l-.26-.11c-.37-.16-.73-.32-1.09-.48l-.32-.14c-.28-.13-.56-.27-.84-.41l-.56-.28c-.34-.17-.68-.35-1.01-.54l-.34-.18c-.44-.25-.88-.5-1.32-.76l-.36-.22c-.32-.19-.63-.39-.94-.59l-.3-.2c-.3-.2-.59-.4-.89-.61l-.39-.28c-.27-.19-.54-.39-.8-.59l-.36-.27c-.34-.26-.67-.52-1-.79l-.11-.09c-.35-.3-.7-.6-1.05-.9l-.29-.27c-.26-.23-.51-.46-.75-.7l-.29-.28c-.31-.3-.62-.61-.92-.92l-.05-.05c-.32-.33-.63-.67-.94-1.01l-.25-.28c-.23-.26-.45-.52-.67-.79l-.25-.29c-.26-.32-.52-.65-.78-.98-7.01-9.06-9.53-21.55-3.93-31.81m14.79-1.33c-4.6,6.27-4.35,14.67-.76,21.3.6,1.12,1.28,2.19,2.04,3.22.69.94,1.46,2.05,2.37,2.8.33.35.68.68,1.03,1.02l.27.25c.34.32.69.63,1.05.93l.04.04h.01c.4.34.81.66,1.23.98l.28.21c.42.31.85.61,1.29.89l.04.03.59.37.28.17c.31.19.63.38.96.55l.14.08c.28.15.56.3.84.45l.3.15.59.29.09.04c.41.19.82.37,1.23.54l.27.11c.33.13.67.26,1.01.39l.43.15c.31.11.62.21.93.31l.42.13c.44.13.88.29,1.34.37,23.78,3.73,29.26-13.6,29.26-13.6-4.95,6.75-14.53,9.96-24.75,7.45-.45-.11-.9-.24-1.35-.37l-.4-.12c-.32-.1-.63-.2-.94-.31l-.43-.15c-.34-.12-.68-.25-1.01-.39l-.27-.11c-.42-.17-.83-.35-1.24-.55l-.62-.3-.36-.17c-.27-.14-.53-.28-.79-.42l-.19-.1c-.32-.18-.64-.36-.95-.55l-.29-.18-.62-.39c-.44-.29-.86-.58-1.29-.89l-.29-.22c-4.48-3.34-8.02-7.92-9.71-13.1-1.77-5.38-1.39-11.41,1.68-16.31m12.86-.42c-2.71,3.78-2.98,8.48-1.1,12.66,1.99,4.43,6.06,7.91,10.81,9.56l.59.19.26.08c.28.08.56.18.85.23,13.13,2.4,16.69-6.38,17.64-7.67-3.12,4.25-8.36,5.27-14.79,3.79-.53-.13-1.05-.28-1.56-.46-.63-.21-1.25-.45-1.85-.73-1.14-.52-2.23-1.15-3.24-1.87-5.76-4.13-9.33-12.02-5.57-18.44" style="fill:#0868ac;"/><path d="m52.04,77.61h-3.66c-.21,0-.39.15-.45.34l-1.3,5.69-1.3,5.69c-.05.2-.23.33-.45.34h-2.59c-2.56,0-2.27-1.68-1.74-3.98l.02-.07.06-.29v-.05s.13-.59.13-.59l.13-.63.13-.64.59-2.73.59-2.73c.04-.15-.05-.3-.21-.34-.03,0-.06,0-.09,0h-3.76c-.21,0-.39.15-.45.34l-.81,3.63-.81,3.63h0s-.07.34-.07.34c-.93,4.02-.68,7.85,4.37,7.98h.15s7.94,0,7.94,0c.21,0,.39-.15.45-.34l1.71-7.62,1.71-7.62c.04-.19-.09-.34-.29-.34Zm-39.2-.04h-4.02c-.21,0-.4.15-.45.34l-.38,1.59-.38,1.59c-.04.19.08.34.29.34h4.05c.21,0,.4-.15.45-.34l.37-1.59.37-1.59c.04-.19-.09-.34-.29-.34Zm-1.17,4.96h-4.05c-.21,0-.4.15-.45.34l-.57,2.39-.57,2.39-.16.68-.55,2.44-.55,2.44c-.04.19-.13.49-.19.67,0,0-.76,2.13-2.03,2.11h-.16s-1.1-.02-1.1-.02h0c-.21,0-.4.14-.45.33l-.42,1.67-.42,1.67c-.05.19.08.34.28.34.72,0,2.34.03,3.32.03,3.18,0,4.85-1.67,5.93-6.46l1.26-5.5,1.18-5.16c.04-.19-.09-.34-.29-.34Zm74.59-1.29l-.17-.66-.17-.67-.08-.34c-.33-1.21-1.29-1.91-3.39-1.91h-3.27s-3.01,0-3.01,0h-3.38c-.21,0-.39.15-.45.34l-.15.67-.18.79-.05.22-1.52,6.76-1.45,6.41c-.04.19-.06.42-.03.51.02.09.41.17.62.17h3.05c.2,0,.46-.03.57-.08s.27-.42.32-.61l.54-2.54.54-2.54h0s.07-.34.07-.34l.66-2.92.58-2.58c.05-.19.23-.33.45-.34h9.6c.2,0,.33-.16.29-.34h0Zm12.36-5.94h-.74s-3.07,0-3.07,0c-.23.01-.44.12-.58.29l-6.8,9.43c-.11.16-.25.14-.29-.05l-.5-2.08c-.06-.2-.24-.33-.45-.34h-4.37c-.2,0-.32.15-.27.34l1.96,6.49c.06.19.06.49,0,.68l-.85,3.14c-.05.19.07.34.28.34h4.32c.21,0,.4-.14.46-.34l.85-3.14c.07-.22.17-.43.31-.62l11.04-13.87c.12-.15.06-.28-.15-.28h-1.16Zm-34.72,8.13h0c-.03.2-.21.35-.43.36h-5.54c-.19,0-.29-.12-.26-.28h0s0-.01,0-.01v-.02s.03-.09.03-.09c.53-1.33,1.61-2.21,3.63-2.21,2.28,0,2.73,1.05,2.57,2.24h0Zm-1.63-6.05c-7.11,0-8.8,4.09-9.74,8.21-.94,4.2-.86,8.13,6.5,8.13h1.11s.05,0,.05,0h.88s.02,0,.02,0c1.94,0,3.89-.02,4.68-.03.21-.01.39-.15.44-.34l.3-1.38.06-.27.36-1.64c.04-.15-.05-.3-.21-.33-.03,0-.06,0-.09,0h-6.62c-2.63,0-3.41-.66-3.13-2.61h10.58,0s0,0,0,0c.17,0,.32-.11.39-.26l.03-.09h0c1.57-5.61,1.12-9.38-5.61-9.38h0Zm-33.61,6.03l-.1.34h0s-.8,2.68-.8,2.68l-.8,2.68c-.07.19-.25.33-.47.34h-4.23c-3.21,0-3.99-2.37-3.21-5.88.78-3.58,2.31-5.81,5.47-6.03,4.31-.31,5.18,2.56,4.13,5.88h0Zm2.9,5.83s1.99-4.58,2.45-7.23c.62-3.54-1.26-8.68-8.49-8.68s-10.32,4.9-11.51,10.24c-1.19,5.37.37,10.08,7.52,10.04l5.64-.02,5.27-.02c.21-.01.4-.15.46-.34l.92-3.32c.05-.19-.07-.34-.28-.34h-.88s-.88,0-.88,0c-.17,0-.27-.11-.25-.25,0,0,.02-.08.02-.08Zm35.62-3.07c0,.13-.11.23-.24.23s-.24-.1-.24-.23h0c0-.13.11-.23.24-.23.13,0,.24.1.24.23Z" style="fill:#131b28;"/></svg>