<?xml version="1.0" encoding="UTF-8"?><svg id="Layer_1" xmlns="http://www.w3.org/2000/svg" xmlns:xlink="http://www.w3.org/1999/xlink" viewBox="0 0 100 100"><defs><radialGradient id="radial-gradient" cx="1216.79" cy="-7276.66" fx="1216.79" fy="-7276.66" r="47.21" gradientTransform="translate(256.65 1132.23) rotate(-180) scale(.19 -.15)" gradientUnits="userSpaceOnUse"><stop offset="0" stop-color="#000"/><stop offset="1" stop-color="#000" stop-opacity=".25"/></radialGradient><radialGradient id="radial-gradient-2" cx="252.46" cy="-7249.38" fx="252.46" fy="-7249.38" r="47.21" gradientTransform="translate(-.53 1132.23) scale(.23 .15)" gradientUnits="userSpaceOnUse"><stop offset="0" stop-color="#000"/><stop offset="1" stop-color="#000" stop-opacity=".25"/></radialGradient><radialGradient id="radial-gradient-3" cx="189.4" cy="-6153.95" fx="189.4" fy="-6153.95" r="18.69" gradientTransform="translate(-.53 1334.96) scale(.23 .21)" gradientUnits="userSpaceOnUse"><stop offset="0" stop-color="#000"/><stop offset="1" stop-color="#000" stop-opacity=".25"/></radialGradient><linearGradient id="linear-gradient" x1="256.16" y1="-6312.49" x2="257.41" y2="-6303.17" gradientTransform="translate(-186.49 6394.17) scale(1.03 1)" gradientUnits="userSpaceOnUse"><stop offset="0" stop-color="#000"/><stop offset="1" stop-color="#000" stop-opacity="0"/></linearGradient><linearGradient id="linear-gradient-2" x1="337.73" y1="-6294.85" x2="354.84" y2="-6322.58" gradientTransform="translate(-266.99 6394.17)" gradientUnits="userSpaceOnUse"><stop offset="0" stop-color="#422600"/><stop offset="1" stop-color="#be7900"/></linearGradient><linearGradient id="linear-gradient-3" x1="246.16" y1="-6321.32" x2="245.65" y2="-6316.68" gradientTransform="translate(-166.99 6392.17)" gradientUnits="userSpaceOnUse"><stop offset="0" stop-color="#ffcd00"/><stop offset="1" stop-color="#ffcd00" stop-opacity="0"/></linearGradient><linearGradient id="linear-gradient-4" x1="106.71" y1="-6318.8" x2="123.98" y2="-6289.83" gradientTransform="translate(-96.99 6394.17)" gradientUnits="userSpaceOnUse"><stop offset="0" stop-color="#ca8300"/><stop offset="1" stop-color="#3b2100"/></linearGradient><linearGradient id="linear-gradient-5" x1="127.3" y1="-6310.21" x2="132.58" y2="-6300.27" gradientTransform="translate(-97.52 6392.4)" gradientUnits="userSpaceOnUse"><stop offset="0" stop-color="#f8c400"/><stop offset="1" stop-color="#f8c400" stop-opacity="0"/></linearGradient><radialGradient id="radial-gradient-4" cx="-114.11" cy="-5214.68" fx="-114.11" fy="-5214.68" r="29.03" gradientTransform="translate(-333.32 1482.41) rotate(12.66) scale(.31 .28) skewX(-4.54)" gradientUnits="userSpaceOnUse"><stop offset="0" stop-color="#0b0200"/><stop offset=".59" stop-color="#bb5a00" stop-opacity=".8"/><stop offset="1" stop-color="#ff9200" stop-opacity="0"/></radialGradient><radialGradient id="radial-gradient-5" cx="-328.19" cy="-5975.8" fx="-328.19" fy="-5975.8" r="29.03" gradientTransform="translate(-333.32 1249.09) rotate(9.23) scale(.31 .21) skewX(-9.83)" gradientUnits="userSpaceOnUse"><stop offset="0" stop-color="#0b0200"/><stop offset=".59" stop-color="#bb5a00" stop-opacity=".8"/><stop offset="1" stop-color="#ff9200" stop-opacity="0"/></radialGradient><radialGradient id="radial-gradient-6" cx="201.91" cy="-58.57" fx="201.91" fy="-58.57" r="9.82" gradientTransform="translate(38.36 60.16) scale(.23 -.2)" gradientUnits="userSpaceOnUse"><stop offset="0" stop-color="#7d7d7d"/><stop offset="1" stop-color="#7d7d7d" stop-opacity=".33"/></radialGradient><linearGradient id="linear-gradient-6" x1="78.22" y1="32.43" x2="79.28" y2="32.38" gradientTransform="translate(0 102) scale(1 -1)" gradientUnits="userSpaceOnUse"><stop offset="0" stop-color="#7d7d7d"/><stop offset="1" stop-color="#7d7d7d" stop-opacity=".33"/></linearGradient><radialGradient id="radial-gradient-7" cx="123.41" cy="-5906.08" fx="123.41" fy="-5906.08" r="24.55" gradientTransform="translate(57.29 1460.78) rotate(-2.02) scale(.19 .24) skewX(-.51)" gradientUnits="userSpaceOnUse"><stop offset="0" stop-color="#fdfdfb"/><stop offset=".76" stop-color="#fdfdfb"/><stop offset="1" stop-color="#d4d4d4"/></radialGradient><linearGradient id="linear-gradient-7" x1="106.21" y1="-6376.1" x2="108.25" y2="-6372.45" gradientTransform="translate(-66.99 6394.17)" gradientUnits="userSpaceOnUse"><stop offset="0" stop-color="#767675" stop-opacity="0"/><stop offset=".26" stop-color="#767675"/><stop offset=".5" stop-color="#767675"/><stop offset="1" stop-color="#767675" stop-opacity="0"/></linearGradient><radialGradient id="radial-gradient-8" cx="3.22" cy="224.71" fx="3.22" fy="224.71" r="17.51" gradientTransform="translate(38.36 60.16) scale(.23 -.2)" gradientUnits="userSpaceOnUse"><stop offset="0" stop-color="#d4d4d4"/><stop offset="1" stop-color="#7d7d7d"/></radialGradient><linearGradient id="linear-gradient-8" x1="196.17" y1="-6382.06" x2="201.14" y2="-6377.27" gradientTransform="translate(-156.99 6394.17)" gradientUnits="userSpaceOnUse"><stop offset="0" stop-color="#646464" stop-opacity="0"/><stop offset=".31" stop-color="#646464" stop-opacity=".58"/><stop offset=".47" stop-color="#646464"/><stop offset=".73" stop-color="#646464" stop-opacity=".26"/><stop offset="1" stop-color="#646464" stop-opacity="0"/></linearGradient><radialGradient id="radial-gradient-9" cx="276.79" cy="-5900.97" fx="276.79" fy="-5900.97" r="23.99" gradientTransform="translate(38.92 1460.78) rotate(-1.52) scale(.25) skewX(.62)" gradientUnits="userSpaceOnUse"><stop offset="0" stop-color="#fdfdfb"/><stop offset=".76" stop-color="#fdfdfb"/><stop offset="1" stop-color="#d4d4d4"/></radialGradient><linearGradient id="linear-gradient-9" x1="131.64" y1="-6375.81" x2="134.1" y2="-6372.89" gradientTransform="translate(-76.99 6394.17)" gradientUnits="userSpaceOnUse"><stop offset="0" stop-color="#949494" stop-opacity=".39"/><stop offset=".5" stop-color="#949494"/><stop offset="1" stop-color="#949494" stop-opacity=".39"/></linearGradient><radialGradient id="radial-gradient-10" cx="73.61" cy="221.91" fx="73.61" fy="221.91" r="21.75" gradientTransform="translate(38.36 60.16) scale(.23 -.2)" gradientUnits="userSpaceOnUse"><stop offset="0" stop-color="#d4d4d4"/><stop offset="1" stop-color="#7d7d7d"/></radialGradient><linearGradient id="linear-gradient-10" x1="212.59" y1="-6382.23" x2="217.84" y2="-6377.27" gradientTransform="translate(-156.99 6394.17)" gradientUnits="userSpaceOnUse"><stop offset="0" stop-color="#646464" stop-opacity="0"/><stop offset=".31" stop-color="#646464" stop-opacity=".58"/><stop offset=".47" stop-color="#646464"/><stop offset=".73" stop-color="#646464" stop-opacity=".26"/><stop offset="1" stop-color="#646464" stop-opacity="0"/></linearGradient><radialGradient id="radial-gradient-11" cx="2277.26" cy="-6887.21" fx="2277.26" fy="-6887.21" r="26.51" gradientTransform="translate(413.43 1101.09) rotate(-31.37) scale(.19 .16) skewX(8.11)" gradientUnits="userSpaceOnUse"><stop offset="0" stop-color="#000"/><stop offset=".73" stop-color="#000"/><stop offset="1" stop-color="#5c5c5c"/></radialGradient><radialGradient id="radial-gradient-12" cx="1391.55" cy="-7545.08" fx="1391.55" fy="-7545.08" r="53.62" gradientTransform="translate(224.2 1101.35) rotate(-19.09) scale(.23 .14) skewX(4.39)" gradientUnits="userSpaceOnUse"><stop offset="0" stop-color="#e59400"/><stop offset=".75" stop-color="#eb9c00"/><stop offset=".87" stop-color="#c87f00"/><stop offset="1" stop-color="#a46100"/></radialGradient><linearGradient id="linear-gradient-11" x1="203.06" y1="-6367.21" x2="225.73" y2="-6367.39" gradientTransform="translate(-166.99 6394.17)" gradientUnits="userSpaceOnUse"><stop offset="0" stop-color="#be7900"/><stop offset=".12" stop-color="#ea9e00"/><stop offset=".26" stop-color="#ffb800"/><stop offset=".39" stop-color="#f7c800"/><stop offset=".53" stop-color="#ffd815"/><stop offset=".77" stop-color="#ffd800"/><stop offset="1" stop-color="#ffcd04"/></linearGradient><radialGradient id="radial-gradient-13" cx=".28" cy="-8639.49" fx=".28" fy="-8639.49" r="5.57" gradientTransform="translate(48.37 1007.63) scale(.23 .11)" gradientUnits="userSpaceOnUse"><stop offset="0" stop-color="#3d2400"/><stop offset=".56" stop-color="#7e5100"/><stop offset="1" stop-color="#b78c00"/></radialGradient><radialGradient id="radial-gradient-14" cx="-24.79" cy="-6269.25" fx="-24.79" fy="-6269.25" r="2.65" gradientTransform="translate(48.37 1339.83) scale(.23 .21)" gradientUnits="userSpaceOnUse"><stop offset="0" stop-color="#3d2400"/><stop offset=".56" stop-color="#7e5100"/><stop offset="1" stop-color="#b78c00"/></radialGradient><linearGradient id="linear-gradient-12" x1="-106.76" y1="-5371.22" x2="-106.61" y2="-5370.3" gradientTransform="translate(-738.46 8180.46) scale(1.1 1.52) skewX(-8.83)" gradientUnits="userSpaceOnUse"><stop offset="0" stop-color="#ffce00"/><stop offset="1" stop-color="#ea9b00"/></linearGradient></defs><path d="m49.7,0c-2.88-.03-5.79.46-8.32,1.61-2.69,1.22-4.9,3.16-6.26,5.46-1.36,2.3-1.89,4.75-1.97,7.45-.15,5.13.14,10.52.6,15.39.12,1.49.34,2.35.12,3.88-.76,3.24-4.14,5.42-5.94,8.27-1.99,3.14-2.83,6.69-4.33,10.02-1.37,3.04-3.3,5.9-4.6,8.96-1.82,4.29-2.36,9-1.16,13.44.92,3.38,2.83,6.56,5.41,9.27-.37.56-.74,1.13-1.12,1.69-1.2,1.73-2.66,3.38-3.34,5.29-.34.96-.47,1.98-.25,2.97s.81,1.92,1.75,2.55c.61.41,1.35.67,2.11.82.76.15,1.55.18,2.33.17,2.97-.05,5.84-.81,8.71-1.44,1.7-.37,3.42-.71,5.14-1.01,6.12-1.05,12.94-.63,18.62.06,1.92.25,3.83.56,5.72.95,2.96.6,5.91,1.37,8.96,1.44.8.02,1.61-.01,2.39-.16.78-.15,1.54-.41,2.17-.83.93-.63,1.53-1.57,1.75-2.55s.08-2.01-.26-2.97c-.69-1.92-2.16-3.56-3.39-5.28-.48-.68-.93-1.38-1.41-2.06,3.68-3.47,6.64-7.47,8.35-11.88,1.87-4.81,2.21-9.98,1.43-14.99s-2.68-9.87-5.18-14.47c-3.13-5.77-5.76-7.85-7.67-12.92-2.06-5.48-.36-11.95-1.89-16.92-.55-1.69-1.42-3.3-2.54-4.78-1.31-1.73-2.98-3.28-4.96-4.48C57.51,1.02,53.6.04,49.7,0Z"/><path d="m38.42,28.91c-.42.44-.69.97-.86,1.52-.17.55-.23,1.11-.25,1.68-.05,1.13.03,2.28-.33,3.37-.38,1.16-1.23,2.17-2.07,3.16-1.45,1.7-2.91,3.45-3.62,5.45-.43,1.22-.58,2.49-.42,3.76-1.62,2-3.02,4.11-4.18,6.32-1.76,3.35-2.97,6.91-3.39,10.55-.52,4.46.16,9.04,2.26,13.16,1.52,2.98,3.78,5.7,6.7,7.83,1.48,1.08,3.13,2,4.89,2.73,6.11,2.52,13.65,2.52,19.66-.16,3.14-1.4,5.79-3.45,8.34-5.53,1.54-1.25,3.07-2.53,4.24-4.03,2.26-2.89,3.05-6.41,3.53-9.84.85-6,.88-12.34-2.26-17.79-1.08-1.88-2.52-3.6-4.25-5.1-.46-2.62-1.37-5.18-2.69-7.59-.95-1.74-2.11-3.39-3-5.15-.36-.72-.68-1.46-1.08-2.17-.4-.71-.9-1.39-1.58-1.93-.69-.56-1.55-.95-2.46-1.2-.91-.25-1.87-.37-2.82-.41-1.91-.08-3.83.13-5.74.07-1.52-.05-3.04-.27-4.56-.2-.76.04-1.52.15-2.23.39-.71.24-1.36.61-1.83,1.11" style="fill:#fcfcfa;"/><path d="m31.68,44.99c.41.51-.25,2.28,9.25,1.15,0,0-1.67.15-3.31.47-2.56.72-4.79,1.52-6.5,2.58-1.7,1.05-2.95,2.42-4.51,3.6,0,0,2.53-3.88,3.16-5.05s-.11-1.11.39-2.83c.5-1.72,1.72-3.37,1.72-3.37,0,0-1,2.43-.19,3.44h0Z" style="fill:url(#radial-gradient); isolation:isolate; opacity:.25;"/><path d="m62.24,44.53c-1.94,1.13-3.07,1-5.42,1.22-2.35.22-8.71.14-8.71.14,0,0,.92-.01,2.96.3s6.2.62,8.55,1.37,3.2.96,4.62,1.72c2.03,1.08,3.52,2.76,5.45,3.94,0,0,.09-1.56-.69-2.73s-2.89-3.01-3.5-4.73-.91-5.09-.91-5.09c0,0-.41,2.73-2.35,3.86Z" style="fill:url(#radial-gradient-2); isolation:isolate; opacity:.42;"/><path d="m44.02,42.11c-.07.49-.17.98-.28,1.46-.06.24-.12.48-.22.7-.11.23-.26.44-.47.6-.19.14-.42.24-.65.33-.9.35-1.87.58-2.85.68.39.02.79.05,1.18.09.25.02.49.05.74.1.24.05.48.13.68.25.22.13.39.32.52.52.26.4.34.86.39,1.32.06.58.07,1.16.01,1.75.05-.39.14-.77.29-1.14.26-.67.68-1.3,1.25-1.81.22-.21.47-.39.75-.55.83-.49,1.89-.71,2.9-.59-1.04.04-2.06-.23-2.89-.75-.42-.26-.78-.59-1.04-.98-.39-.6-.5-1.31-.3-1.97" style="fill:url(#radial-gradient-3); isolation:isolate; opacity:.2;"/><path d="m41.55,53.57c-.49,1.58-.83,3.18-1.01,4.81-.26,2.29-.19,4.6-.34,6.9-.12,1.95-.4,3.92,0,5.85.19.92.54,1.81,1.03,2.65.08-.32.13-.64.17-.97.17-1.56-.14-3.13-.25-4.69-.19-2.74.27-5.48.45-8.23.14-2.11.12-4.22-.05-6.32" style="isolation:isolate; opacity:.11;"/><path d="m32.75,38.06c-.05-.48-.87-.56-1.24-.31-.31.2-.6.9-.33,1.17.43.44,1.64-.19,1.57-.86Z" style="fill:#7d7d7d; isolation:isolate; opacity:.25;"/><path d="m74.26,51.26c.48-.06,3.42,2.04,3.02,2.82-.4.78-1.16.31-1.7.31s-2.02.57-2.27.21.65-1.18,1.13-1.88c.38-.56-.65-1.4-.18-1.46h0Z" style="fill:#7d7d7d; isolation:isolate; opacity:.75;"/><path d="m56.29,4.35c-1.03.61-.58,1.37-.14,2.13s-.97,2.96-.99,3.06c-.01.09,2.79-1.12,3.55-1.9.9-.93,3.18,1.26,3.06.92,0-.59-4.45-4.82-5.48-4.21h0Z" style="fill:#7d7d7d;"/><path d="m64.1,29.93c-.87.66.41,1.66,1.01,2.83.38.73,1.42,1.75,2.42,1.59.76-.12,1.23-1.04,1.15-1.68-.14-1.24-1.39-1.53-2.29-1.96-.72-.34-1.68-1.24-2.29-.78Z" style="fill:#838384;"/><path d="m37.48,34.9c.68,1.66,2.06,3.08,3.69,4.19.54.37,1.12.71,1.75.95s1.34.38,2.03.33c.68-.05,1.33-.27,1.92-.55.59-.28,1.15-.62,1.72-.93.99-.53,2.05-.95,3.07-1.42,1.24-.57,2.44-1.21,3.48-2.01.48-.37.92-.76,1.45-1.08s1.16-.54,1.8-.5c.48.03.94.2,1.41.29.24.04.48.06.72.03.24-.03.47-.12.64-.26.21-.18.3-.44.28-.69-.01-.25-.11-.49-.25-.71-.28-.44-.7-.82-.88-1.29-.17-.42-.13-.87-.12-1.32.01-.44,0-.91-.24-1.3-.19-.3-.5-.54-.85-.69-.36-.16-.75-.24-1.15-.27-.8-.06-1.6.07-2.41.11-1.07.05-2.14-.06-3.2,0-1.33.07-2.63.39-3.96.39-1.52,0-3.04-.41-4.54-.22-.64.09-1.26.28-1.88.46s-1.26.33-1.91.32c-.74,0-1.46-.22-2.2-.27-.37-.02-.75,0-1.09.11-.35.11-.66.31-.83.59-.1.16-.15.34-.15.51,0,.18.02.36.07.53.1.35.29.67.45,1,.56,1.2.68,2.51,1.18,3.72"/><path d="m35.57,30.16c1.33.69,2.52,1.53,3.52,2.5.93.89,1.72,1.91,2.93,2.57.86.47,1.88.73,2.93.81,1.22.09,2.46-.06,3.64-.33,1.09-.25,2.15-.6,3.12-1.06,1.85-.88,3.39-2.17,5.42-2.75.44-.13.91-.22,1.34-.37s.83-.39,1.04-.72c.2-.32.19-.68.25-1.03.07-.37.22-.73.31-1.1.08-.37.09-.77-.11-1.11-.17-.28-.48-.5-.84-.65-.36-.14-.76-.21-1.17-.22-.81-.03-1.6.13-2.4.19-1.06.08-2.13-.03-3.2,0-1.33.03-2.64.26-3.96.31-1.51.06-3.02-.13-4.54-.17-.66-.02-1.31,0-1.96.08s-1.28.25-1.83.54c-.53.27-.96.64-1.45.96-.24.16-.5.31-.78.42-.28.11-.59.19-.91.2-.16,0-.33,0-.49.01-.27.03-.52.15-.68.33s-.22.4-.17.61" style="isolation:isolate; opacity:.3;"/><path d="m75.5,49.66c2.44,1.65,3.99,4.14,4.47,6.73.37,2.03.13,4.11-.41,6.1s-1.39,3.93-2.22,5.86c-.33.77-.67,1.54-.8,2.35-.13.81-.05,1.67.42,2.39.53.82,1.53,1.39,2.6,1.66,1.06.26,2.2.26,3.27.03,1.07-.22,2.87-.51,3.74-1.08,2.21-1.44,2.74-3.94,3.26-6.14.55-2.29.28-4.7-.2-7.01-.66-3.16-1.76-6.24-3.16-9.23-1.03-2.19-2.35-4.28-3.93-6.23-1.54-1.91-3.74-3.4-5.35-5.26-.56-.65-1.24-1.32-1.79-1.98-1.19-1.41-.92-1.15-1.66-2.06-.54-.66-1.38-.89-2.27-1.18-.89-.29-1.89-.38-2.81-.16-1.21.29-2.2,1.09-2.73,2.05s-.62,2.06-.41,3.1c.26,1.34,1,2.59,1.82,3.77.93,1.33,2.02,2.6,3.43,3.59,1.47,1.03,3.25,1.71,4.74,2.71m-46.01-10.24c-2.84,2.71-5.76,5.32-7.36,8.25-.79,1.49-1.17,3.1-1.71,4.66-.62,1.77-1.46,3.49-2.4,5.16-.87,1.54-1.83,3.05-2.78,4.56-.7,1.1-1.41,2.22-1.65,3.44-.19.97-.08,1.97.21,2.92.29.95.77,1.86,1.3,2.73,2.27,3.73,5.69,6.94,9.73,9.4,1.84,1.12,3.8,2.08,5.86,2.87,1.12.43,2.29.81,3.52.83.61,0,1.23-.08,1.8-.28.56-.21,1.06-.54,1.4-.97.41-.53.55-1.19.47-1.82-.08-.63-.38-1.23-.77-1.77-.96-1.32-2.47-2.28-3.93-3.22-3.15-2.04-6.19-4.2-9.1-6.48-.82-.64-1.65-1.31-2.22-2.12-.56-.79-.86-1.69-1.07-2.59-.56-2.47-.42-5.08.59-7.45.39-.93.91-1.82,1.41-2.71.87-1.54,1.69-3.12,2.83-4.53,1.42-1.76,3.32-3.25,4.48-5.14.98-1.6,1.37-3.39,1.75-5.16.3-1.38.86-2.73,1.15-4.12-.56.9-2.38,2.37-3.5,3.54h0Z"/><path d="m80.43,62.44c-.8,2.46-1.96,4.81-2.97,7.21-.34.81-.67,1.63-.9,2.47-.1-.46-.1-.94-.02-1.41.13-.81.47-1.59.8-2.35.84-1.93,1.68-3.86,2.22-5.86.54-2,.79-4.08.41-6.11-.48-2.6-2.03-5.08-4.47-6.73-1.46-.98-3.19-1.65-4.64-2.64,1.65.76,3.38,1.42,4.88,2.35,2.61,1.62,4.45,4.07,4.98,6.73.42,2.12.51,3.88-.29,6.34h0Z" style="fill:#838384;"/><path d="m21.37,57.53c-1,2.37-1.15,4.98-.58,7.45.2.9.51,1.8,1.07,2.59.58.81,1.4,1.47,2.22,2.12.13.1.25.2.38.29-.06,0-.11,0-.17-.01-.6-.06-1.17-.29-1.65-.61-.48-.32-.87-.72-1.18-1.16-.39-.54-.68-1.13-1.12-1.63-.54-.6-1.29-1.06-2.14-1.3.63-.19,1.17-.57,1.5-1.06.39-.58.47-1.28.44-1.95-.03-.67-.14-1.34-.1-2,.08-1.3.76-2.51,1.33-3.72.78-1.62,1.41-3.31,2.48-4.81.65-.91,1.46-1.74,2.39-2.46.1-.19.25-.35.45-.48.14-.09.3-.15.48-.19-.54.55-1.07,1.11-1.54,1.7-1.14,1.41-1.96,2.99-2.83,4.53-.5.89-1.02,1.78-1.41,2.71h0Z" style="fill:#7d7d7d; isolation:isolate; opacity:.95;"/><path d="m91.94,84.22c-.19.53-.48,1.03-.84,1.48-.82,1.01-2,1.78-3.18,2.48-2.02,1.2-4.12,2.3-6,3.67-1.26.91-2.41,1.94-3.47,3.02-.91.92-1.77,1.89-2.8,2.71-1.05.83-2.28,1.5-3.61,1.86-1.61.44-3.32.42-4.88.09-1.09-.23-2.15-.64-2.83-1.38-.68-.74-.9-1.73-.98-2.71-.14-1.73.11-3.49.33-5.24.19-1.46.36-2.91.43-4.37.13-2.64-.08-5.26-.51-7.83-.07-.43-.15-.86-.11-1.31.04-.44.22-.9.59-1.25.34-.32.82-.5,1.3-.6.48-.09.96-.1,1.44-.11,1.13-.03,2.27-.08,3.38,0,.7.05,1.39.16,2.09.22,1.17.09,2.38.04,3.56-.24,1.26-.31,2.47-.89,3.75-1.05.53-.07,1.05-.06,1.57,0,.52.06,1.04.18,1.44.45.31.2.53.48.7.78.26.44.42.93.51,1.43.08.44.11.9.25,1.33.22.71.73,1.31,1.35,1.8.61.49,1.33.88,2.04,1.26.71.38,1.43.76,2.19,1.07.36.15.72.28,1.07.45s.66.38.89.65c.31.37.43.86.34,1.34" style="fill:url(#linear-gradient); isolation:isolate; opacity:.2;"/><path d="m98.82,87.08c-1.05,1.05-2.52,1.74-3.97,2.36-2.48,1.06-5.06,1.99-7.39,3.27-1.56.86-3.01,1.86-4.36,2.94-1.15.93-2.25,1.91-3.55,2.7-1.31.79-2.82,1.36-4.41,1.57-1.94.24-3.94-.07-5.74-.73-1.26-.46-2.47-1.12-3.2-2.1-.73-.98-.89-2.18-.9-3.34,0-2.05.45-4.07.87-6.08.35-1.67.69-3.35.91-5.04.39-3.07.39-6.18.13-9.26-.04-.52-.1-1.04,0-1.55s.34-1.02.81-1.36c.43-.31,1.01-.45,1.58-.48s1.14.05,1.7.12c1.33.16,2.67.29,3.97.58.82.18,1.62.42,2.44.61,1.37.31,2.8.46,4.2.32,1.51-.15,2.98-.63,4.5-.59.62.01,1.24.11,1.84.27.61.16,1.21.39,1.65.77.34.29.58.65.75,1.03.26.56.41,1.16.47,1.77.05.53.05,1.08.17,1.6.2.87.74,1.66,1.42,2.33s1.48,1.25,2.29,1.82c.8.57,1.61,1.13,2.48,1.63.41.23.83.45,1.21.71.39.26.74.55.98.91.33.49.43,1.08.22,1.64s-.59,1.1-1.07,1.58Z" style="fill:url(#linear-gradient-2);"/><path d="m98.7,84.42c-.25.52-.6,1.01-1.03,1.43-.96.95-2.3,1.57-3.63,2.12-2.27.95-4.62,1.79-6.75,2.94-1.43.77-2.75,1.67-3.98,2.65-1.06.83-2.06,1.72-3.24,2.43-1.2.71-2.58,1.23-4.03,1.41-1.77.22-3.6-.07-5.24-.65-1.15-.41-2.25-1-2.92-1.89-.66-.88-.82-1.96-.82-3,0-1.84.41-3.66.8-5.47.32-1.5.63-3.01.83-4.53.36-2.76.34-5.55.12-8.33-.04-.46-.08-.93,0-1.39s.31-.92.73-1.22c.39-.29.92-.41,1.44-.43s1.04.05,1.55.11c1.21.15,2.44.26,3.62.52.75.16,1.48.38,2.23.55,1.25.28,2.55.41,3.84.29,1.38-.13,2.72-.56,4.11-.53.57.01,1.14.1,1.68.24.55.14,1.1.35,1.51.69.31.26.52.59.69.93.25.5.41,1.04.43,1.59.01.57-.13,1.14-.04,1.71.07.46.31.89.6,1.28s.66.74,1.01,1.1c.69.68,1.38,1.38,2.24,1.9.98.6,2.15.95,3.17,1.5.3.17.6.35.81.6.36.41.46.98.25,1.46" style="fill:#e18900;"/><path d="m98.56,83.83c-.27.52-.63,1.01-1.06,1.45-.99,1.01-2.32,1.7-3.73,2.15-2.31.73-4.84.83-7.11,1.67-1.38.51-2.63,1.27-3.89,2-1.02.59-2.06,1.15-3.18,1.56-1.26.46-2.61.72-3.96.9-.86.12-1.73.2-2.59.16-.87-.04-1.74-.21-2.5-.58-.58-.28-1.1-.69-1.41-1.21-.34-.58-.4-1.27-.4-1.93.02-1.76.47-3.5.46-5.26-.01-1.53-.37-3.05-.48-4.58-.2-2.94.55-5.94-.11-8.82-.11-.46-.25-.92-.24-1.4,0-.24.05-.47.14-.69.1-.22.26-.42.47-.55.18-.12.39-.19.61-.22s.44-.03.66,0c.44.06.85.2,1.27.31,1.21.3,2.49.3,3.72.52.77.14,1.52.38,2.29.55,1.28.29,2.62.42,3.94.29,1.42-.14,2.8-.57,4.23-.54.58.01,1.16.1,1.73.24.56.14,1.13.34,1.55.7.31.26.53.59.71.94.26.5.44,1.05.44,1.6,0,.29-.05.58-.09.86-.03.29-.04.58.04.86.08.28.25.53.45.76s.42.44.62.66c.57.63.98,1.36,1.42,2.07s.94,1.41,1.64,1.92c.95.69,2.19.97,3.26,1.52.31.16.61.35.83.61.18.21.29.45.34.71.04.26.02.52-.08.77" style="fill:#ffc000;"/><path d="m68.36,70.93c1.31-.3,2.43.54,3.39,1.17.62.44,1.51.33,2.26.35,1.25-.04,2.5.18,3.75.05,2.47-.17,4.88-.68,7.36-.77,1.18-.06,2.51-.12,3.54.46.41.24,1.02,1.26,1.43.88-.17-1.07-1.11-2.11-2.38-2.39-.99-.13-2,.1-3.01.02-2.98-.06-5.94-.52-8.92-.39-2.08.02-4.15-.07-6.23-.13-.82-.14-1.1.47-1.54.7" style="fill:url(#linear-gradient-3);"/><path d="m16.29,68.36c.64-.22,1.36-.26,2.05-.16s1.33.35,1.9.68c1.15.66,2,1.61,2.82,2.55,1.88,2.17,3.68,4.38,5.32,6.67,1.33,1.86,2.55,3.79,4.08,5.54,1,1.14,2.13,2.2,3.14,3.34,1.01,1.14,1.9,2.38,2.34,3.74.58,1.78.36,3.73-.65,5.37-.71,1.15-1.8,2.14-3.12,2.81s-2.88,1.01-4.42.97c-2.45-.08-4.7-1.11-6.98-1.87-4.65-1.55-9.7-2.04-14.49-3.25-1.47-.37-2.92-.81-4.4-1.15-.66-.15-1.33-.29-1.95-.52-.62-.24-1.2-.59-1.55-1.08-.27-.38-.38-.83-.37-1.27,0-.44.13-.88.31-1.3.36-.83.94-1.59,1.33-2.41.64-1.34.76-2.82.67-4.27-.09-1.44-.37-2.88-.48-4.32-.05-.64-.07-1.3.07-1.93.15-.63.47-1.25,1.03-1.7.51-.41,1.19-.66,1.88-.78.69-.12,1.41-.13,2.12-.11.71.01,1.42.05,2.13,0,.71-.05,1.42-.18,2.03-.48.59-.28,1.07-.7,1.46-1.16s.72-.96,1.05-1.45c.33-.49.67-.99,1.1-1.42.43-.44.96-.82,1.58-1.03" style="fill:url(#linear-gradient-4);"/><path d="m17.31,69.29c.58-.2,1.24-.22,1.86-.1.61.12,1.18.37,1.68.69.99.64,1.69,1.55,2.35,2.45,1.59,2.17,3.15,4.35,4.62,6.59,1.11,1.68,2.18,3.4,3.55,4.94.91,1.02,1.95,1.96,2.87,2.97.93,1.01,1.75,2.11,2.16,3.34.53,1.58.31,3.34-.6,4.79-.66,1.05-1.67,1.93-2.88,2.53-1.22.59-2.64.89-4.05.84-2.25-.09-4.3-1.03-6.41-1.67-4.06-1.23-8.45-1.4-12.61-2.36-1.49-.34-2.94-.79-4.44-1.11-.66-.14-1.34-.25-1.97-.48-.63-.22-1.22-.57-1.56-1.07-.25-.37-.36-.8-.34-1.23s.14-.85.33-1.24c.36-.8.93-1.52,1.3-2.31.55-1.2.62-2.53.52-3.81-.1-1.29-.37-2.56-.46-3.85-.04-.58-.05-1.16.09-1.72.14-.56.43-1.11.92-1.52.53-.44,1.26-.68,2-.78.74-.09,1.49-.05,2.23,0,.74.06,1.49.13,2.23.09s1.5-.19,2.11-.54c.56-.32.98-.78,1.3-1.28.32-.5.55-1.03.79-1.55s.51-1.05.89-1.52c.38-.47.9-.88,1.53-1.09" style="fill:#ec9a00;"/><path d="m16.76,68.07c.57-.24,1.23-.28,1.85-.18.62.11,1.2.36,1.68.69.98.66,1.6,1.61,2.18,2.54,1.33,2.13,2.56,4.31,4.15,6.32,1.15,1.46,2.48,2.82,3.64,4.27,1.58,1.97,2.86,4.13,3.39,6.45.36,1.56.34,3.24-.55,4.65-.59.92-1.55,1.68-2.67,2.16-1.13.47-2.43.67-3.69.57-1.99-.15-3.79-.97-5.67-1.54-3.32-1.01-6.91-1.26-10.33-2.02-1.44-.32-2.85-.74-4.31-.99-.64-.11-1.3-.2-1.92-.39-.62-.19-1.2-.52-1.51-.99-.22-.34-.3-.73-.26-1.11.03-.38.17-.75.35-1.1.36-.71.88-1.35,1.16-2.08.41-1.07.24-2.23-.07-3.33s-.75-2.17-.88-3.29c-.06-.5-.06-1,.08-1.49s.41-.96.85-1.31c.56-.45,1.34-.67,2.12-.74s1.56.02,2.34.12c.77.09,1.55.2,2.33.17.78-.03,1.58-.2,2.19-.6.61-.4.99-.99,1.2-1.6.22-.61.29-1.25.38-1.88s.2-1.27.49-1.86c.29-.59.79-1.13,1.48-1.42" style="fill:#ffbd00;"/><path d="m23.85,73.39c1.05,1.59,1.68,3.41,2.72,5.01.95,1.47,2.04,2.99,3.01,4.34.43.6,1.44,1.53,2.46,2.97.92,1.31,1.85,3.13,2.37,3.74-.3-.72-.91-2.64-1.65-4.01-.69-1.28-1.49-2.01-1.98-2.7-.97-1.36-2.01-2.58-3.01-3.87-1.38-1.78-2.42-3.78-3.93-5.48h0Z" style="fill:url(#linear-gradient-5);"/><path d="m86.09,73.28c-.23-.37-.64-.65-1.1-.81-.46-.16-.96-.21-1.46-.21-.99,0-1.98.22-2.97.15-.84-.06-1.63-.32-2.44-.49-.84-.17-1.73-.24-2.57-.05-.89.2-1.68.7-2.18,1.36-.44.58-.64,1.26-.71,1.95-.06.68,0,1.37.09,2.05.06.49.13.99.27,1.47.14.48.36.95.71,1.35.5.58,1.24.99,2.03,1.24,1.3.4,2.78.38,4.07-.06,2.27-.83,4.19-2.31,5.37-4.14.42-.66.75-1.35.96-2.08.08-.29.15-.58.15-.88,0-.3-.06-.6-.22-.86" style="fill:url(#radial-gradient-4); isolation:isolate; opacity:.35;"/><path d="m86.09,72.22c-.23-.27-.64-.47-1.1-.58-.46-.12-.96-.15-1.46-.15-.99,0-1.98.16-2.97.11-.84-.04-1.63-.23-2.44-.35-.84-.12-1.73-.17-2.57-.03-.89.15-1.68.51-2.18.98-.44.42-.64.91-.71,1.41s0,.99.09,1.48c.06.36.13.71.27,1.06.14.35.36.69.71.98.5.42,1.24.72,2.03.89,1.3.29,2.78.28,4.07-.04,2.27-.6,4.19-1.67,5.37-2.99.42-.47.75-.98.96-1.5.08-.21.15-.42.15-.63,0-.21-.06-.43-.22-.62" style="fill:url(#radial-gradient-5); isolation:isolate; opacity:.35;"/><path d="m88.05,71.33c-.18.66-.57,1.26-1.02,1.82-1.39,1.69-3.44,2.98-5.75,3.63-1.4.38-2.94.4-4.36.05-.82-.2-1.62-.54-2.18-1.08-.7-.67-.96-1.58-1.05-2.47-.11-1.19.07-2.41.66-3.5.24-.44.54-.85.91-1.22.15-.15.31-.3.49-.43.6-.46,1.33-.8,2.12-.95.9-.17,1.84-.09,2.75.04.88.13,1.75.29,2.62.43.93.15,1.87.26,2.74.57.29.1.57.23.83.38.13.07.25.15.36.24.35.27.64.6.8.97.21.48.2,1.02.07,1.52h0Z"/><path d="m87.41,70.62c-.21.32-.54.58-.9.79-.85.5-1.9.74-2.92.9.22-.17.45-.34.66-.51.26-.22.51-.46.69-.73.18-.27.29-.59.21-.89-.05-.21-.17-.39-.34-.56-.16-.16-.36-.3-.56-.42-.89-.52-1.94-.82-3-1.01-.68-.13-1.39-.2-2.08-.27-.72-.08-1.46-.14-2.18-.03-.26.04-.51.1-.75.19-.05.02-.1.03-.14.05-.02,0-.04.01-.05.02-.06.02-.11.04-.17.07,0,0-.02,0-.03.01-.07.03-.13.06-.2.1-.07.04-.14.07-.2.11-.07.04-.13.08-.19.12.15-.15.31-.29.49-.43.6-.46,1.33-.8,2.12-.95.9-.17,1.84-.09,2.75.04.88.13,1.75.29,2.62.43.93.15,1.87.26,2.74.57.29.1.57.23.83.38.03.02.07.04.1.07.05.03.1.07.14.11.05.04.09.07.13.11.2.19.36.41.43.65.1.36.01.75-.2,1.07h0Z" style="fill:url(#radial-gradient-6);"/><path d="m87.41,70.62c-.21.32-.54.58-.9.79-.85.5-1.9.74-2.92.9.22-.17.45-.34.66-.51.26-.22.51-.46.69-.73.18-.27.29-.59.21-.89-.05-.21-.17-.39-.34-.56-.16-.16-.36-.3-.56-.42-.89-.52-1.94-.82-3-1.01-.68-.13-1.39-.2-2.08-.27-.72-.08-1.46-.14-2.18-.03-.26.04-.51.1-.75.19-.05.02-.1.03-.14.05-.02,0-.04.01-.05.02-.06.02-.11.04-.17.07,0,0-.02,0-.03.01-.07.03-.13.06-.2.1-.07.04-.14.07-.2.11s-.13.08-.19.12h0c.15-.15.31-.3.49-.43.6-.46,1.33-.8,2.12-.95.9-.17,1.84-.09,2.75.04.88.13,1.75.29,2.62.43.93.15,1.87.26,2.74.57.29.1.57.23.83.38.03.02.07.04.1.07.05.03.1.07.14.11.05.04.09.07.13.11.2.19.36.41.43.65.1.36.01.75-.2,1.07h0Z" style="fill:url(#linear-gradient-6);"/><path d="m38.95,15.47c-.71.03-1.13.12-1.66.53s-.62.73-.85,1.3c-.2.51-.75.92-.78,1.46-.04.66.02,1.33.08,1.99.09,1.08.19,2.19.67,3.2.24.5.58.98,1.04,1.37.45.39,1.02.69,1.65.82.59.12,1.22.1,1.8-.05s1.11-.43,1.54-.79c.63-.52,1.06-1.2,1.31-1.92.24-.71.31-1.46.3-2.21-.02-.93-.16-1.86-.51-2.75-.19-.49-.45-.96-.76-1.39-.26-.36-.86-.36-1.2-.66-.37-.32-.83-.29-1.31-.49s-.78-.43-1.31-.41" style="fill:url(#radial-gradient-7);"/><path d="m37.31,19.92c-.15.76-.15,1.55.16,2.27.2.48.54.91.95,1.28.27.24.57.46.93.61.36.14.77.2,1.15.12.35-.07.66-.27.89-.5s.38-.52.49-.81c.32-.86.27-1.8-.05-2.67-.23-.63-.62-1.23-1.21-1.66-.29-.2-.62-.36-.99-.43-.36-.07-.76-.06-1.1.07-.38.14-.67.42-.86.73-.19.31-.29.65-.36,1"/><path d="m39.21,19.37c.1.21.42.29.6.46.17.17.36.34.45.55.18.4-.18.98.2,1.26.12.09.36.09.48,0,.46-.35.36-1.06.18-1.56-.17-.45-.57-.88-1.08-1.1-.23-.1-.58-.18-.78-.04-.13.09-.11.29-.05.42Z" style="fill:url(#linear-gradient-7);"/><path d="m42.78,17.04c-.55-.11-1.1-.2-1.66-.24-1.25-.1-2.56.03-3.64.56-.71.36-1.28.87-1.82,1.4.03-.54.12-1.07.32-1.58.23-.57.6-1.11,1.12-1.52.52-.41,1.21-.69,1.92-.72.54-.03,1.07.09,1.56.29.48.2.91.48,1.29.81.35.3.65.63.91.99Z" style="fill:url(#radial-gradient-8);"/><path d="m41.97,14.29c1,.79,1.75,1.76,2.26,2.8-.22-1.14-.57-2.05-1.46-2.8-.54-.43-1.16-.8-1.86-1.06-.61-.23-1.29-.37-1.68-.38-.39,0-.48,0-.56,0-.08,0-.14,0,.11.03s.82.15,1.42.38c.61.23,1.22.6,1.76,1.03Z" style="fill:url(#linear-gradient-8);"/><path d="m52.21,15.82c-1.05.6-2.95,1.56-2.95,1.56-.04.07-.06.12-.09.19-.58,1.35-.36,2.85.2,4.21.57,1.39,1.52,2.71,2.96,3.54.72.42,1.55.7,2.42.79.87.09,1.77-.03,2.54-.37.94-.41,1.66-1.14,2.11-1.95.45-.81.64-1.71.7-2.6.05-.8,0-1.6-.18-2.38-.08-.33-.61-.58-.74-.9-.48-1.17-1.44-1.36-2.68-2.03-.62-.34-1.12-.53-1.85-.62-.73-.08-.84-.07-1.53.15-.39.13-.58.22-.92.42" style="fill:url(#radial-gradient-9);"/><path d="m54.25,17.78c-.42.03-.83.15-1.18.33s-.66.44-.9.73c-.48.58-.69,1.29-.72,2-.03.53.04,1.07.25,1.57s.56.96,1.05,1.3c.5.35,1.13.55,1.78.58.65.03,1.29-.13,1.83-.44.42-.25.76-.59,1.01-.97.24-.38.39-.8.46-1.23.12-.76-.02-1.55-.43-2.22s-1.12-1.24-1.98-1.5c-.37-.11-.77-.17-1.16-.15"/><path d="m55.26,20.09c-.35.12-.9.04-1.05.33-.09.17.04.45.24.52.41.14,1.06-.11,1.22-.46.07-.15-.04-.39-.22-.45-.07-.02-.13.05-.2.07h0Z" style="fill:#0c0c0b;"/><path d="m56.85,20.85c.47-.39-.33-1.43-.95-1.85-.45-.31-1.76-.63-1.71-.29s.65.76,1.04,1.09c.49.4,1.4,1.24,1.62,1.06Z" style="fill:url(#linear-gradient-9);"/><path d="m59.93,18.81c-.6-.4-1.18-.82-1.83-1.16-2.16-1.15-4.93-1.4-7.38-.77-.51.13-1,.3-1.47.5.48-.99,1.37-1.82,2.42-2.42.34-.2.71-.38,1.1-.51.69-.22,1.44-.29,2.17-.2.73.09,1.43.32,2.05.65,1.24.67,2.11,1.75,2.6,2.92.14.32.24.66.32.99h0Z" style="fill:url(#radial-gradient-10);"/><path d="m55.56,12.18c-.19.2-.36.42-.5.66.86.16,1.69.45,2.42.86,1.42.79,2.5,1.95,3.26,3.24.18-.17.34-.34.48-.54-.76-1.34-1.86-2.56-3.34-3.38-.71-.39-1.5-.69-2.32-.85Z" style="fill:url(#linear-gradient-10);"/><path d="m42.39,22.86c.71-.67,1.19-1.48,1.88-2.17.34-.34.73-.66,1.2-.88s1-.35,1.53-.31c.59.04,1.15.29,1.58.63.43.34.75.77,1.01,1.22.25.43.44.89.79,1.26.38.4.91.67,1.39.98.24.16.47.33.66.53.19.2.34.43.4.68.06.25.03.52-.07.76s-.28.46-.51.64c-.44.36-1.05.55-1.66.62-1.22.14-2.45-.16-3.69-.13-1.25.03-2.47.4-3.71.36-.62-.02-1.26-.15-1.77-.45-.26-.15-.48-.34-.64-.56-.16-.22-.26-.48-.27-.74-.01-.25.06-.5.18-.73.12-.23.29-.44.47-.63.38-.39.84-.71,1.23-1.08" style="fill:url(#radial-gradient-11);"/><path d="m35.63,29.32c.02.1.07.2.13.28.11.15.26.27.43.37s.35.19.53.28c.94.49,1.7,1.19,2.38,1.92.91.98,1.71,2.08,2.93,2.79.86.5,1.88.79,2.93.88,1.22.1,2.46-.06,3.64-.35,1.09-.27,2.15-.65,3.12-1.15,1.85-.95,3.39-2.35,5.42-2.98.44-.14.91-.23,1.34-.4.43-.17.83-.42,1.04-.78.2-.34.19-.74.25-1.12.07-.4.22-.8.31-1.2.08-.4.09-.83-.11-1.2-.17-.31-.48-.55-.84-.7s-.76-.22-1.17-.24c-.81-.03-1.6.14-2.4.2-1.06.08-2.13-.03-3.2,0-1.33.03-2.64.28-3.96.34-1.51.06-3.02-.13-4.54-.19-.66-.02-1.32-.02-1.96.08-.65.09-1.28.28-1.82.59-.53.3-.95.72-1.43,1.07-.24.18-.5.34-.79.45-.29.12-.61.19-.92.18-.16,0-.33-.03-.49.02-.1.03-.18.08-.26.14-.07.06-.13.13-.19.2-.13.17-.25.34-.35.52" style="fill:url(#radial-gradient-12);"/><path d="m41.57,30.69c-.15.54-.06,1.12.26,1.61.33.49.85.86,1.49,1.04.79.22,1.69.11,2.43-.21.43-.19.82-.45,1.07-.8.13-.17.21-.37.24-.57.03-.2,0-.41-.07-.6-.09-.21-.26-.39-.46-.54-.2-.14-.44-.25-.7-.32-.5-.14-1.05-.14-1.58-.12-.8.03-1.61.12-2.4.25" style="fill:#e6b300;"/><path d="m38.96,26.51c-.54.27-1.05.56-1.56.86-.26.16-.54.33-.67.57-.1.17-.12.37-.12.56,0,.19.01.39-.02.58-.02.13-.06.26-.07.39,0,.07,0,.13.02.2.02.06.06.12.11.17.07.06.16.1.26.12.1.02.2.04.3.06.47.09.88.34,1.24.61.36.27.68.58,1.06.83,1.02.69,2.36.98,3.68,1s2.61-.21,3.89-.45c1.01-.19,2.01-.39,2.98-.69,1.49-.46,2.87-1.16,4.06-2.03.54-.4,1.05-.83,1.66-1.15.54-.28,1.14-.47,1.69-.74.05-.02.1-.05.14-.08.04-.03.08-.07.11-.11.04-.07.04-.16.02-.24-.03-.08-.08-.15-.14-.21-.07-.07-.15-.14-.23-.19-.57-.41-1.35-.56-2.1-.61-.75-.05-1.51-.01-2.25-.12-.7-.1-1.36-.32-2.04-.5-.71-.19-1.43-.34-2.16-.44-1.72-.24-3.5-.19-5.21.11-1.63.29-3.2.8-4.63,1.51" style="fill:#694200;"/><path d="m38.79,24.98c-.78.44-1.47.97-2.06,1.58-.34.35-.64.72-.81,1.15-.13.33-.18.69-.26,1.03-.03.13-.07.26-.07.39,0,.07.01.13.03.19s.06.12.12.17c.09.08.22.12.34.14s.26.03.39.04c.58.06,1.12.29,1.61.57.48.28.93.6,1.43.87,1.1.58,2.41.84,3.7.88s2.59-.12,3.87-.34c1.01-.17,2.02-.37,2.98-.69,1.47-.49,2.79-1.23,4.06-2.03.58-.36,1.14-.73,1.66-1.15.18-.14.34-.29.53-.42.19-.13.4-.24.63-.31.35-.1.74-.07,1.1-.02.28.04.55.09.83.08.14,0,.28-.03.41-.07.13-.04.25-.11.34-.2.12-.12.18-.27.18-.43,0-.15-.06-.31-.15-.44-.19-.27-.51-.45-.84-.57-.46-.17-.96-.26-1.45-.36-1.5-.31-2.96-.75-4.35-1.33-.69-.29-1.36-.6-2.04-.91-.7-.31-1.41-.61-2.16-.81-1.69-.43-3.54-.29-5.21.2-1.86.55-3.52,1.5-4.8,2.76" style="fill:url(#linear-gradient-11);"/><path d="m50.67,25.29c-.09-.1-.22-.16-.36-.2-.14-.03-.29-.04-.44-.02-.29.04-.55.17-.79.31-.69.4-1.29.88-1.82,1.42-.7.71-1.28,1.54-1.47,2.45-.03.15-.05.31-.03.46s.09.31.22.42c.11.1.27.16.43.18.16.02.33,0,.48-.04.31-.09.57-.27.81-.45,1.34-1.01,2.55-2.21,3.03-3.66.05-.15.09-.29.09-.45,0-.15-.05-.31-.16-.42" style="fill:#ffda37;"/><path d="m47.47,23.21c.09.25.57.21.85.33.24.11.44.34.71.34.26,0,.67-.08.7-.29.04-.29-.46-.47-.78-.57-.41-.14-.94-.2-1.33-.02-.09.04-.19.14-.16.22h0Z" style="fill:url(#radial-gradient-13); isolation:isolate; opacity:.8;"/><path d="m42.88,23.07c-.36-.1-.95.43-.75.7.05.07.21.17.32.12.16-.08.3-.35.48-.45.12-.07.09-.33-.05-.36Z" style="fill:url(#radial-gradient-14); isolation:isolate; opacity:.8;"/><path d="m59.9,27.01c-.09.66-.67,1.19-1.31,1.19s-1.08-.53-.99-1.19c.09-.66.67-1.19,1.31-1.19s1.08.53.99,1.19Z" style="fill:url(#linear-gradient-12);"/></svg>