<?xml version="1.0" encoding="UTF-8"?><svg id="Layer_1" xmlns="http://www.w3.org/2000/svg" viewBox="0 0 100 100"><path d="m7.91,21.04h14.83c4.35.07,7.51,2.57,9.46,7.49,1.96,4.92,2.6,11.64,1.94,20.15-.26,3.89-.83,7.71-1.72,11.45-.86,3.78-2.06,7.21-3.54,10.13-1.84,3.82-3.82,6.24-5.92,7.27-2.14,1.04-4.33,1.55-6.53,1.54h-6.64l-2.1,20.93H0L7.91,21.04m6.47,12.56l-3.32,33.04c.22.07.44.11.66.11h.77c3.54.07,6.49-.62,8.85-2.09,2.36-1.54,3.95-6.9,4.76-16.08.66-7.71,0-12.15-1.99-13.33-1.96-1.17-4.41-1.72-7.36-1.65-.44.07-.87.11-1.27.11h-1.16l.06-.11M42.91,0h7.64l-2.16,21.04h6.86c3.76.15,6.57,1.69,8.41,4.63,1.88,2.94,2.43,8.52,1.66,16.74l-3.71,36.67h-7.75l3.54-35.02c.37-3.67.26-6.28-.33-7.82s-1.86-2.31-3.82-2.31l-6.14-.11-4.54,45.26h-7.64L42.91,0m30.61,21.04h14.83c4.35.07,7.51,2.57,9.46,7.49,1.96,4.92,2.6,11.64,1.94,20.15-.26,3.89-.83,7.71-1.72,11.45-.86,3.78-2.06,7.21-3.54,10.13-1.84,3.82-3.82,6.24-5.92,7.27-2.14,1.04-4.33,1.55-6.53,1.54h-6.64l-2.1,20.93h-7.69l7.91-78.96m6.47,12.56l-3.32,33.04c.22.07.44.11.66.11h.77c3.54.07,6.49-.62,8.85-2.09,2.36-1.54,3.95-6.9,4.76-16.08.66-7.71,0-12.15-1.99-13.33-1.96-1.17-4.41-1.72-7.36-1.65-.44.07-.87.11-1.27.11h-1.16l.06-.11" class="php-logo"/></svg>