<?xml version="1.0" encoding="UTF-8"?><svg id="SvgjsSvg1013" xmlns="http://www.w3.org/2000/svg" viewBox="0 0 100 100"><g id="SvgjsG1015"><ellipse cx="50" cy="50" rx="9.11" ry="10.2" style="fill:#61dafb;"/><path d="m84.58,33.18c-1.76-.72-3.59-1.43-5.51-2.06.48-2.15.88-4.29,1.2-6.35,1.68-11.81-.16-20.13-5.27-23.35-1.52-.98-3.19-1.43-5.11-1.43-5.59,0-12.7,4.65-19.89,12.43C42.81,4.65,35.7,0,30.11,0c-1.92,0-3.59.45-5.11,1.43-5.11,3.31-6.95,11.63-5.27,23.35.32,2.06.72,4.2,1.2,6.35-1.92.63-3.75,1.25-5.51,2.06C5.43,37.48,0,43.38,0,50s5.51,12.52,15.42,16.82c1.76.72,3.59,1.43,5.51,2.06-.48,2.15-.88,4.29-1.2,6.35-1.68,11.81.16,20.13,5.27,23.35,1.52.98,3.19,1.43,5.11,1.43,5.67,0,12.78-4.65,19.89-12.43,7.19,7.78,14.3,12.43,19.89,12.43,1.92,0,3.59-.45,5.11-1.43,5.11-3.31,6.95-11.63,5.27-23.35-.32-2.06-.72-4.2-1.2-6.35,1.92-.63,3.75-1.25,5.51-2.06,9.98-4.29,15.42-10.2,15.42-16.82s-5.43-12.52-15.42-16.82Zm-11.82-27.28c3.27,2.15,4.39,8.77,3.04,18.16-.24,1.88-.64,3.85-1.12,5.9-4.15-1.07-8.55-1.79-13.18-2.24-2.72-4.29-5.51-8.14-8.31-11.63,5.91-6.53,11.9-11,16.77-11,1.04,0,2,.27,2.8.81Zm-8.95,53.04c-1.44,2.86-3.12,5.72-4.87,8.59-2.96.27-5.91.36-8.95.36s-6.07-.09-8.95-.36c-1.76-2.86-3.35-5.72-4.79-8.59-1.52-2.95-2.96-5.99-4.23-8.94,1.28-2.95,2.72-5.99,4.23-8.94,1.44-2.86,3.12-5.72,4.87-8.59,2.96-.27,5.91-.36,8.95-.36s6.07.09,8.95.36c1.76,2.86,3.35,5.72,4.79,8.59,1.52,2.95,2.96,5.99,4.23,8.94-1.36,2.95-2.72,5.9-4.23,8.94Zm6.63-2.95c1.2,3.13,2.16,6.17,3.04,9.21-2.72.72-5.59,1.25-8.63,1.7.96-1.7,2-3.49,2.88-5.37.96-1.88,1.84-3.76,2.72-5.55h0Zm-20.45,24.24c-1.92-2.33-3.75-4.83-5.51-7.42,1.84.09,3.67.18,5.51.18s3.67-.09,5.51-.18c-1.76,2.59-3.59,5.1-5.51,7.42Zm-14.86-13.42c-3.04-.45-5.91-.98-8.63-1.7.88-2.95,1.84-6.08,3.04-9.21.88,1.79,1.76,3.67,2.72,5.46.96,1.97,1.92,3.67,2.88,5.46h0Zm-5.59-22.81c-1.2-3.13-2.16-6.17-3.04-9.21,2.72-.72,5.59-1.25,8.63-1.7-.96,1.7-2,3.49-2.88,5.37-.96,1.88-1.84,3.76-2.72,5.55Zm20.45-24.24c1.92,2.33,3.75,4.83,5.51,7.42-1.84-.09-3.67-.18-5.51-.18s-3.67.09-5.51.18c1.76-2.59,3.59-5.1,5.51-7.42Zm17.73,18.78l-2.88-5.37c3.04.45,5.91.98,8.63,1.7-.88,2.95-1.84,6.08-3.04,9.21-.88-1.88-1.76-3.76-2.72-5.55Zm-43.53-14.49c-1.36-9.39-.24-16.01,3.04-18.16.8-.54,1.76-.81,2.8-.81,4.79,0,10.78,4.38,16.77,11-2.8,3.4-5.59,7.33-8.31,11.63-4.63.45-9.03,1.25-13.18,2.24-.48-2.06-.8-4.03-1.12-5.9ZM4.47,50c0-4.2,4.55-8.68,12.54-11.99,1.6-.72,3.35-1.34,5.11-1.88,1.28,4.47,2.88,9.21,4.79,13.95-1.92,4.74-3.59,9.39-4.79,13.86-11.02-3.58-17.65-8.94-17.65-13.95Zm22.76,44.1c-3.27-2.15-4.39-8.77-3.04-18.16.24-1.88.64-3.85,1.12-5.9,4.15,1.07,8.55,1.79,13.18,2.24,2.72,4.29,5.51,8.14,8.31,11.63-5.91,6.53-11.9,11-16.77,11-1.04,0-2-.27-2.8-.81h0Zm48.56-18.16c1.36,9.39.24,16.01-3.04,18.16-.8.54-1.76.81-2.8.81-4.79,0-10.78-4.38-16.77-11,2.8-3.4,5.59-7.33,8.31-11.63,4.63-.45,9.03-1.25,13.18-2.24.48,2.06.8,4.03,1.12,5.9Zm7.19-13.95c-1.6.72-3.35,1.34-5.11,1.88-1.28-4.47-2.88-9.21-4.79-13.95,1.92-4.74,3.59-9.39,4.79-13.86,11.02,3.58,17.65,8.94,17.65,13.95,0,4.2-4.63,8.68-12.54,11.99Z" style="fill:#61dafb;"/></g></svg>