<?xml version="1.0" encoding="UTF-8"?><svg id="Layer_1" xmlns="http://www.w3.org/2000/svg" viewBox="0 0 100 100"><path d="m93.6,13.23C82.49-.07,60.37-3.97,44.47,4.42l-28.03,14.91c-7.65,3.98-12.95,10.51-14.47,17.88-1.33,6.19-.2,12.54,3.36,18.05-2.45,3.05-4.08,6.44-4.79,10-1.63,7.54.51,15.34,5.81,21.52,11.21,13.3,33.23,17.2,49.13,8.81l28.03-14.83c7.65-3.98,12.95-10.51,14.47-17.88,1.33-6.19.2-12.54-3.36-18.05,2.45-3.05,4.08-6.44,4.79-10,1.73-7.63-.41-15.42-5.81-21.61" style="fill:#ff3e00;"/><path d="m41.72,88.04c-9.07,1.95-18.55-1.02-23.85-7.37-3.26-3.73-4.49-8.39-3.57-12.96.2-.76.41-1.44.61-2.2l.51-1.36,1.43.85c3.36,2.03,7.03,3.56,11.01,4.58l1.02.25-.1.85c-.1,1.19.31,2.46,1.12,3.47,1.63,1.95,4.49,2.88,7.24,2.29.61-.17,1.22-.34,1.73-.59l27.93-14.83c1.43-.76,2.34-1.86,2.65-3.22.31-1.36-.1-2.8-1.02-3.9-1.63-1.95-4.49-2.8-7.24-2.2-.61.17-1.22.34-1.73.59l-10.7,5.68c-1.73.93-3.67,1.61-5.71,2.03-9.07,1.95-18.55-1.02-23.85-7.37-3.16-3.73-4.49-8.39-3.47-12.96.92-4.41,4.18-8.39,8.77-10.76l28.03-14.83c1.73-.93,3.67-1.61,5.71-2.12,9.07-1.95,18.55,1.02,23.85,7.37,3.26,3.73,4.49,8.39,3.57,12.96-.2.76-.41,1.44-.71,2.2l-.51,1.36-1.43-.85c-3.36-2.03-7.03-3.56-11.01-4.58l-1.02-.25.1-.85c.1-1.19-.31-2.46-1.12-3.47-1.63-1.95-4.49-2.8-7.24-2.2-.61.17-1.22.34-1.73.59l-27.93,14.83c-1.43.76-2.34,1.86-2.65,3.22s.1,2.8,1.02,3.9c1.63,1.95,4.49,2.8,7.24,2.2.61-.17,1.22-.34,1.73-.59l10.7-5.68c1.73-.93,3.67-1.61,5.71-2.12,9.07-1.95,18.55,1.02,23.85,7.37,3.26,3.73,4.49,8.39,3.57,12.96-.92,4.41-4.18,8.39-8.77,10.76l-28.03,14.83c-1.73.93-3.67,1.61-5.71,2.12" style="fill:#fff;"/></svg>